<?xml version="1.0" encoding="utf-8" standalone="no"?>
<!DOCTYPE svg PUBLIC "-//W3C//DTD SVG 1.1//EN"
  "http://www.w3.org/Graphics/SVG/1.1/DTD/svg11.dtd">
<!-- Created with matplotlib (https://matplotlib.org/) -->
<svg height="345.6pt" version="1.1" viewBox="0 0 460.8 345.6" width="460.8pt" xmlns="http://www.w3.org/2000/svg" xmlns:xlink="http://www.w3.org/1999/xlink">
 <defs>
  <style type="text/css">
*{stroke-linecap:butt;stroke-linejoin:round;}
  </style>
 </defs>
 <g id="figure_1">
  <g id="patch_1">
   <path d="M 0 345.6 
L 460.8 345.6 
L 460.8 0 
L 0 0 
z
" style="fill:#ffffff;"/>
  </g>
  <g id="axes_1">
   <g id="patch_2">
    <path d="M 369.216 174.528 
C 369.216 157.055246 365.774248 139.752393 359.087715 123.609673 
C 352.401182 107.466954 342.599903 92.798303 330.2448 80.4432 
C 317.889697 68.088097 303.221046 58.286818 287.078327 51.600285 
C 270.935607 44.913752 253.632754 41.472 236.16 41.472 
C 218.687246 41.472 201.384393 44.913752 185.241673 51.600285 
C 169.098954 58.286818 154.430303 68.088097 142.0752 80.4432 
C 129.720097 92.798303 119.918818 107.466954 113.232285 123.609673 
C 106.545752 139.752393 103.104 157.055246 103.104 174.528 
C 103.104 192.000754 106.545752 209.303607 113.232285 225.446327 
C 119.918818 241.589046 129.720097 256.257697 142.0752 268.6128 
C 154.430303 280.967903 169.098954 290.769182 185.241673 297.455715 
C 201.384393 304.142248 218.687246 307.584 236.16 307.584 
C 253.632754 307.584 270.935607 304.142248 287.078327 297.455715 
C 303.221046 290.769182 317.889697 280.967903 330.2448 268.6128 
C 342.599903 256.257697 352.401182 241.589046 359.087715 225.446327 
C 365.774248 209.303607 369.216 192.000754 369.216 174.528 
M 236.16 174.528 
C 236.16 174.528 236.16 174.528 236.16 174.528 
C 236.16 174.528 236.16 174.528 236.16 174.528 
C 236.16 174.528 236.16 174.528 236.16 174.528 
C 236.16 174.528 236.16 174.528 236.16 174.528 
C 236.16 174.528 236.16 174.528 236.16 174.528 
C 236.16 174.528 236.16 174.528 236.16 174.528 
C 236.16 174.528 236.16 174.528 236.16 174.528 
C 236.16 174.528 236.16 174.528 236.16 174.528 
C 236.16 174.528 236.16 174.528 236.16 174.528 
C 236.16 174.528 236.16 174.528 236.16 174.528 
C 236.16 174.528 236.16 174.528 236.16 174.528 
C 236.16 174.528 236.16 174.528 236.16 174.528 
C 236.16 174.528 236.16 174.528 236.16 174.528 
C 236.16 174.528 236.16 174.528 236.16 174.528 
C 236.16 174.528 236.16 174.528 236.16 174.528 
C 236.16 174.528 236.16 174.528 236.16 174.528 
M 369.216 174.528 
z
" style="fill:#ffffff;"/>
   </g>
   <g id="matplotlib.axis_1">
    <g id="xtick_1">
     <g id="line2d_1">
      <path clip-path="url(#p6787a8f9fd)" d="M 236.16 174.528 
L 369.216 174.528 
" style="fill:none;stroke:#b0b0b0;stroke-linecap:square;stroke-width:0.8;"/>
     </g>
     <g id="text_1">
      <!-- 0° -->
      <defs>
       <path d="M 31.78125 66.40625 
Q 24.171875 66.40625 20.328125 58.90625 
Q 16.5 51.421875 16.5 36.375 
Q 16.5 21.390625 20.328125 13.890625 
Q 24.171875 6.390625 31.78125 6.390625 
Q 39.453125 6.390625 43.28125 13.890625 
Q 47.125 21.390625 47.125 36.375 
Q 47.125 51.421875 43.28125 58.90625 
Q 39.453125 66.40625 31.78125 66.40625 
z
M 31.78125 74.21875 
Q 44.046875 74.21875 50.515625 64.515625 
Q 56.984375 54.828125 56.984375 36.375 
Q 56.984375 17.96875 50.515625 8.265625 
Q 44.046875 -1.421875 31.78125 -1.421875 
Q 19.53125 -1.421875 13.0625 8.265625 
Q 6.59375 17.96875 6.59375 36.375 
Q 6.59375 54.828125 13.0625 64.515625 
Q 19.53125 74.21875 31.78125 74.21875 
z
" id="DejaVuSans-48"/>
       <path d="M 25 67.921875 
Q 21.09375 67.921875 18.40625 65.203125 
Q 15.71875 62.5 15.71875 58.59375 
Q 15.71875 54.734375 18.40625 52.078125 
Q 21.09375 49.421875 25 49.421875 
Q 28.90625 49.421875 31.59375 52.078125 
Q 34.28125 54.734375 34.28125 58.59375 
Q 34.28125 62.453125 31.5625 65.1875 
Q 28.859375 67.921875 25 67.921875 
z
M 25 74.21875 
Q 28.125 74.21875 31 73.015625 
Q 33.890625 71.828125 35.984375 69.578125 
Q 38.234375 67.390625 39.359375 64.59375 
Q 40.484375 61.8125 40.484375 58.59375 
Q 40.484375 52.15625 35.96875 47.6875 
Q 31.453125 43.21875 24.90625 43.21875 
Q 18.3125 43.21875 13.90625 47.609375 
Q 9.515625 52 9.515625 58.59375 
Q 9.515625 65.140625 14 69.671875 
Q 18.5 74.21875 25 74.21875 
z
" id="DejaVuSans-176"/>
      </defs>
      <g transform="translate(377.53475 177.287375)scale(0.1 -0.1)">
       <use xlink:href="#DejaVuSans-48"/>
       <use x="63.623047" xlink:href="#DejaVuSans-176"/>
      </g>
     </g>
    </g>
    <g id="xtick_2">
     <g id="line2d_2">
      <path clip-path="url(#p6787a8f9fd)" d="M 236.16 174.528 
L 330.2448 80.4432 
" style="fill:none;stroke:#b0b0b0;stroke-linecap:square;stroke-width:0.8;"/>
     </g>
     <g id="text_2">
      <!-- 45° -->
      <defs>
       <path d="M 37.796875 64.3125 
L 12.890625 25.390625 
L 37.796875 25.390625 
z
M 35.203125 72.90625 
L 47.609375 72.90625 
L 47.609375 25.390625 
L 58.015625 25.390625 
L 58.015625 17.1875 
L 47.609375 17.1875 
L 47.609375 0 
L 37.796875 0 
L 37.796875 17.1875 
L 4.890625 17.1875 
L 4.890625 26.703125 
z
" id="DejaVuSans-52"/>
       <path d="M 10.796875 72.90625 
L 49.515625 72.90625 
L 49.515625 64.59375 
L 19.828125 64.59375 
L 19.828125 46.734375 
Q 21.96875 47.46875 24.109375 47.828125 
Q 26.265625 48.1875 28.421875 48.1875 
Q 40.625 48.1875 47.75 41.5 
Q 54.890625 34.8125 54.890625 23.390625 
Q 54.890625 11.625 47.5625 5.09375 
Q 40.234375 -1.421875 26.90625 -1.421875 
Q 22.3125 -1.421875 17.546875 -0.640625 
Q 12.796875 0.140625 7.71875 1.703125 
L 7.71875 11.625 
Q 12.109375 9.234375 16.796875 8.0625 
Q 21.484375 6.890625 26.703125 6.890625 
Q 35.15625 6.890625 40.078125 11.328125 
Q 45.015625 15.765625 45.015625 23.390625 
Q 45.015625 31 40.078125 35.4375 
Q 35.15625 39.890625 26.703125 39.890625 
Q 22.75 39.890625 18.8125 39.015625 
Q 14.890625 38.140625 10.796875 36.28125 
z
" id="DejaVuSans-53"/>
      </defs>
      <g transform="translate(331.281795 73.30308)scale(0.1 -0.1)">
       <use xlink:href="#DejaVuSans-52"/>
       <use x="63.623047" xlink:href="#DejaVuSans-53"/>
       <use x="127.246094" xlink:href="#DejaVuSans-176"/>
      </g>
     </g>
    </g>
    <g id="xtick_3">
     <g id="line2d_3">
      <path clip-path="url(#p6787a8f9fd)" d="M 236.16 174.528 
L 236.16 41.472 
" style="fill:none;stroke:#b0b0b0;stroke-linecap:square;stroke-width:0.8;"/>
     </g>
     <g id="text_3">
      <!-- 90° -->
      <defs>
       <path d="M 10.984375 1.515625 
L 10.984375 10.5 
Q 14.703125 8.734375 18.5 7.8125 
Q 22.3125 6.890625 25.984375 6.890625 
Q 35.75 6.890625 40.890625 13.453125 
Q 46.046875 20.015625 46.78125 33.40625 
Q 43.953125 29.203125 39.59375 26.953125 
Q 35.25 24.703125 29.984375 24.703125 
Q 19.046875 24.703125 12.671875 31.3125 
Q 6.296875 37.9375 6.296875 49.421875 
Q 6.296875 60.640625 12.9375 67.421875 
Q 19.578125 74.21875 30.609375 74.21875 
Q 43.265625 74.21875 49.921875 64.515625 
Q 56.59375 54.828125 56.59375 36.375 
Q 56.59375 19.140625 48.40625 8.859375 
Q 40.234375 -1.421875 26.421875 -1.421875 
Q 22.703125 -1.421875 18.890625 -0.6875 
Q 15.09375 0.046875 10.984375 1.515625 
z
M 30.609375 32.421875 
Q 37.25 32.421875 41.125 36.953125 
Q 45.015625 41.5 45.015625 49.421875 
Q 45.015625 57.28125 41.125 61.84375 
Q 37.25 66.40625 30.609375 66.40625 
Q 23.96875 66.40625 20.09375 61.84375 
Q 16.21875 57.28125 16.21875 49.421875 
Q 16.21875 41.5 20.09375 36.953125 
Q 23.96875 32.421875 30.609375 32.421875 
z
" id="DejaVuSans-57"/>
      </defs>
      <g transform="translate(227.2975 30.231375)scale(0.1 -0.1)">
       <use xlink:href="#DejaVuSans-57"/>
       <use x="63.623047" xlink:href="#DejaVuSans-48"/>
       <use x="127.246094" xlink:href="#DejaVuSans-176"/>
      </g>
     </g>
    </g>
    <g id="xtick_4">
     <g id="line2d_4">
      <path clip-path="url(#p6787a8f9fd)" d="M 236.16 174.528 
L 142.0752 80.4432 
" style="fill:none;stroke:#b0b0b0;stroke-linecap:square;stroke-width:0.8;"/>
     </g>
     <g id="text_4">
      <!-- 135° -->
      <defs>
       <path d="M 12.40625 8.296875 
L 28.515625 8.296875 
L 28.515625 63.921875 
L 10.984375 60.40625 
L 10.984375 69.390625 
L 28.421875 72.90625 
L 38.28125 72.90625 
L 38.28125 8.296875 
L 54.390625 8.296875 
L 54.390625 0 
L 12.40625 0 
z
" id="DejaVuSans-49"/>
       <path d="M 40.578125 39.3125 
Q 47.65625 37.796875 51.625 33 
Q 55.609375 28.21875 55.609375 21.1875 
Q 55.609375 10.40625 48.1875 4.484375 
Q 40.765625 -1.421875 27.09375 -1.421875 
Q 22.515625 -1.421875 17.65625 -0.515625 
Q 12.796875 0.390625 7.625 2.203125 
L 7.625 11.71875 
Q 11.71875 9.328125 16.59375 8.109375 
Q 21.484375 6.890625 26.8125 6.890625 
Q 36.078125 6.890625 40.9375 10.546875 
Q 45.796875 14.203125 45.796875 21.1875 
Q 45.796875 27.640625 41.28125 31.265625 
Q 36.765625 34.90625 28.71875 34.90625 
L 20.21875 34.90625 
L 20.21875 43.015625 
L 29.109375 43.015625 
Q 36.375 43.015625 40.234375 45.921875 
Q 44.09375 48.828125 44.09375 54.296875 
Q 44.09375 59.90625 40.109375 62.90625 
Q 36.140625 65.921875 28.71875 65.921875 
Q 24.65625 65.921875 20.015625 65.03125 
Q 15.375 64.15625 9.8125 62.3125 
L 9.8125 71.09375 
Q 15.4375 72.65625 20.34375 73.4375 
Q 25.25 74.21875 29.59375 74.21875 
Q 40.828125 74.21875 47.359375 69.109375 
Q 53.90625 64.015625 53.90625 55.328125 
Q 53.90625 49.265625 50.4375 45.09375 
Q 46.96875 40.921875 40.578125 39.3125 
z
" id="DejaVuSans-51"/>
      </defs>
      <g transform="translate(120.131955 73.30308)scale(0.1 -0.1)">
       <use xlink:href="#DejaVuSans-49"/>
       <use x="63.623047" xlink:href="#DejaVuSans-51"/>
       <use x="127.246094" xlink:href="#DejaVuSans-53"/>
       <use x="190.869141" xlink:href="#DejaVuSans-176"/>
      </g>
     </g>
    </g>
    <g id="xtick_5">
     <g id="line2d_5">
      <path clip-path="url(#p6787a8f9fd)" d="M 236.16 174.528 
L 103.104 174.528 
" style="fill:none;stroke:#b0b0b0;stroke-linecap:square;stroke-width:0.8;"/>
     </g>
     <g id="text_5">
      <!-- 180° -->
      <defs>
       <path d="M 31.78125 34.625 
Q 24.75 34.625 20.71875 30.859375 
Q 16.703125 27.09375 16.703125 20.515625 
Q 16.703125 13.921875 20.71875 10.15625 
Q 24.75 6.390625 31.78125 6.390625 
Q 38.8125 6.390625 42.859375 10.171875 
Q 46.921875 13.96875 46.921875 20.515625 
Q 46.921875 27.09375 42.890625 30.859375 
Q 38.875 34.625 31.78125 34.625 
z
M 21.921875 38.8125 
Q 15.578125 40.375 12.03125 44.71875 
Q 8.5 49.078125 8.5 55.328125 
Q 8.5 64.0625 14.71875 69.140625 
Q 20.953125 74.21875 31.78125 74.21875 
Q 42.671875 74.21875 48.875 69.140625 
Q 55.078125 64.0625 55.078125 55.328125 
Q 55.078125 49.078125 51.53125 44.71875 
Q 48 40.375 41.703125 38.8125 
Q 48.828125 37.15625 52.796875 32.3125 
Q 56.78125 27.484375 56.78125 20.515625 
Q 56.78125 9.90625 50.3125 4.234375 
Q 43.84375 -1.421875 31.78125 -1.421875 
Q 19.734375 -1.421875 13.25 4.234375 
Q 6.78125 9.90625 6.78125 20.515625 
Q 6.78125 27.484375 10.78125 32.3125 
Q 14.796875 37.15625 21.921875 38.8125 
z
M 18.3125 54.390625 
Q 18.3125 48.734375 21.84375 45.5625 
Q 25.390625 42.390625 31.78125 42.390625 
Q 38.140625 42.390625 41.71875 45.5625 
Q 45.3125 48.734375 45.3125 54.390625 
Q 45.3125 60.0625 41.71875 63.234375 
Q 38.140625 66.40625 31.78125 66.40625 
Q 25.390625 66.40625 21.84375 63.234375 
Q 18.3125 60.0625 18.3125 54.390625 
z
" id="DejaVuSans-56"/>
      </defs>
      <g transform="translate(77.06025 177.287375)scale(0.1 -0.1)">
       <use xlink:href="#DejaVuSans-49"/>
       <use x="63.623047" xlink:href="#DejaVuSans-56"/>
       <use x="127.246094" xlink:href="#DejaVuSans-48"/>
       <use x="190.869141" xlink:href="#DejaVuSans-176"/>
      </g>
     </g>
    </g>
    <g id="xtick_6">
     <g id="line2d_6">
      <path clip-path="url(#p6787a8f9fd)" d="M 236.16 174.528 
L 142.0752 268.6128 
" style="fill:none;stroke:#b0b0b0;stroke-linecap:square;stroke-width:0.8;"/>
     </g>
     <g id="text_6">
      <!-- 225° -->
      <defs>
       <path d="M 19.1875 8.296875 
L 53.609375 8.296875 
L 53.609375 0 
L 7.328125 0 
L 7.328125 8.296875 
Q 12.9375 14.109375 22.625 23.890625 
Q 32.328125 33.6875 34.8125 36.53125 
Q 39.546875 41.84375 41.421875 45.53125 
Q 43.3125 49.21875 43.3125 52.78125 
Q 43.3125 58.59375 39.234375 62.25 
Q 35.15625 65.921875 28.609375 65.921875 
Q 23.96875 65.921875 18.8125 64.3125 
Q 13.671875 62.703125 7.8125 59.421875 
L 7.8125 69.390625 
Q 13.765625 71.78125 18.9375 73 
Q 24.125 74.21875 28.421875 74.21875 
Q 39.75 74.21875 46.484375 68.546875 
Q 53.21875 62.890625 53.21875 53.421875 
Q 53.21875 48.921875 51.53125 44.890625 
Q 49.859375 40.875 45.40625 35.40625 
Q 44.1875 33.984375 37.640625 27.21875 
Q 31.109375 20.453125 19.1875 8.296875 
z
" id="DejaVuSans-50"/>
      </defs>
      <g transform="translate(120.131955 281.27167)scale(0.1 -0.1)">
       <use xlink:href="#DejaVuSans-50"/>
       <use x="63.623047" xlink:href="#DejaVuSans-50"/>
       <use x="127.246094" xlink:href="#DejaVuSans-53"/>
       <use x="190.869141" xlink:href="#DejaVuSans-176"/>
      </g>
     </g>
    </g>
    <g id="xtick_7">
     <g id="line2d_7">
      <path clip-path="url(#p6787a8f9fd)" d="M 236.16 174.528 
L 236.16 307.584 
" style="fill:none;stroke:#b0b0b0;stroke-linecap:square;stroke-width:0.8;"/>
     </g>
     <g id="text_7">
      <!-- 270° -->
      <defs>
       <path d="M 8.203125 72.90625 
L 55.078125 72.90625 
L 55.078125 68.703125 
L 28.609375 0 
L 18.3125 0 
L 43.21875 64.59375 
L 8.203125 64.59375 
z
" id="DejaVuSans-55"/>
      </defs>
      <g transform="translate(224.11625 324.343375)scale(0.1 -0.1)">
       <use xlink:href="#DejaVuSans-50"/>
       <use x="63.623047" xlink:href="#DejaVuSans-55"/>
       <use x="127.246094" xlink:href="#DejaVuSans-48"/>
       <use x="190.869141" xlink:href="#DejaVuSans-176"/>
      </g>
     </g>
    </g>
    <g id="xtick_8">
     <g id="line2d_8">
      <path clip-path="url(#p6787a8f9fd)" d="M 236.16 174.528 
L 330.2448 268.6128 
" style="fill:none;stroke:#b0b0b0;stroke-linecap:square;stroke-width:0.8;"/>
     </g>
     <g id="text_8">
      <!-- 315° -->
      <g transform="translate(328.100545 281.27167)scale(0.1 -0.1)">
       <use xlink:href="#DejaVuSans-51"/>
       <use x="63.623047" xlink:href="#DejaVuSans-49"/>
       <use x="127.246094" xlink:href="#DejaVuSans-53"/>
       <use x="190.869141" xlink:href="#DejaVuSans-176"/>
      </g>
     </g>
    </g>
   </g>
   <g id="matplotlib.axis_2">
    <g id="ytick_1">
     <g id="line2d_9">
      <path clip-path="url(#p6787a8f9fd)" d="M 260.857132 174.528 
L 260.721838 171.946447 
L 260.31744 169.393178 
L 259.648368 166.896167 
L 258.721953 164.482772 
L 257.548344 162.179434 
L 256.140399 160.01139 
L 254.513546 158.002393 
L 252.685607 156.174454 
L 250.67661 154.547601 
L 248.508566 153.139656 
L 246.205228 151.966047 
L 243.791833 151.039632 
L 241.294822 150.37056 
L 238.741553 149.966162 
L 236.16 149.830868 
L 233.578447 149.966162 
L 231.025178 150.37056 
L 228.528167 151.039632 
L 226.114772 151.966047 
L 223.811434 153.139656 
L 221.64339 154.547601 
L 219.634393 156.174454 
L 217.806454 158.002393 
L 216.179601 160.01139 
L 214.771656 162.179434 
L 213.598047 164.482772 
L 212.671632 166.896167 
L 212.00256 169.393178 
L 211.598162 171.946447 
L 211.462868 174.528 
L 211.598162 177.109553 
L 212.00256 179.662822 
L 212.671632 182.159833 
L 213.598047 184.573228 
L 214.771656 186.876566 
L 216.179601 189.04461 
L 217.806454 191.053607 
L 219.634393 192.881546 
L 221.64339 194.508399 
L 223.811434 195.916344 
L 226.114772 197.089953 
L 228.528167 198.016368 
L 231.025178 198.68544 
L 233.578447 199.089838 
L 236.16 199.225132 
L 238.741553 199.089838 
L 241.294822 198.68544 
L 243.791833 198.016368 
L 246.205228 197.089953 
L 248.508566 195.916344 
L 250.67661 194.508399 
L 252.685607 192.881546 
L 254.513546 191.053607 
L 256.140399 189.04461 
L 257.548344 186.876566 
L 258.721953 184.573228 
L 259.648368 182.159833 
L 260.31744 179.662822 
L 260.721838 177.109553 
L 260.857132 174.528 
L 260.857132 174.528 
" style="fill:none;stroke:#b0b0b0;stroke-linecap:square;stroke-width:0.8;"/>
     </g>
     <g id="text_9">
      <!-- 5 -->
      <g transform="translate(258.977175 162.997129)scale(0.1 -0.1)">
       <use xlink:href="#DejaVuSans-53"/>
      </g>
     </g>
    </g>
    <g id="ytick_2">
     <g id="line2d_10">
      <path clip-path="url(#p6787a8f9fd)" d="M 285.554264 174.528 
L 285.433942 171.08243 
L 285.073562 167.653647 
L 284.47488 164.258355 
L 283.640814 160.913096 
L 282.575425 157.634167 
L 281.283905 154.437543 
L 279.772546 151.338798 
L 278.048711 148.353028 
L 276.120799 145.49478 
L 273.998201 142.777979 
L 271.69126 140.215861 
L 269.211214 137.820909 
L 266.570145 135.604789 
L 263.780922 133.5783 
L 260.857132 131.751313 
L 257.81302 130.13273 
L 254.663417 128.730436 
L 251.423667 127.551264 
L 248.109554 126.600957 
L 244.737224 125.884146 
L 241.323106 125.404323 
L 237.883835 125.163826 
L 234.436165 125.163826 
L 230.996894 125.404323 
L 227.582776 125.884146 
L 224.210446 126.600957 
L 220.896333 127.551264 
L 217.656583 128.730436 
L 214.50698 130.13273 
L 211.462868 131.751313 
L 208.539078 133.5783 
L 205.749855 135.604789 
L 203.108786 137.820909 
L 200.62874 140.215861 
L 198.321799 142.777979 
L 196.199201 145.49478 
L 194.271289 148.353028 
L 192.547454 151.338798 
L 191.036095 154.437543 
L 189.744575 157.634167 
L 188.679186 160.913096 
L 187.84512 164.258355 
L 187.246438 167.653647 
L 186.886058 171.08243 
L 186.765736 174.528 
L 186.886058 177.97357 
L 187.246438 181.402353 
L 187.84512 184.797645 
L 188.679186 188.142904 
L 189.744575 191.421833 
L 191.036095 194.618457 
L 192.547454 197.717202 
L 194.271289 200.702972 
L 196.199201 203.56122 
L 198.321799 206.278021 
L 200.62874 208.840139 
L 203.108786 211.235091 
L 205.749855 213.451211 
L 208.539078 215.4777 
L 211.462868 217.304687 
L 214.50698 218.92327 
L 217.656583 220.325564 
L 220.896333 221.504736 
L 224.210446 222.455043 
L 227.582776 223.171854 
L 230.996894 223.651677 
L 234.436165 223.892174 
L 237.883835 223.892174 
L 241.323106 223.651677 
L 244.737224 223.171854 
L 248.109554 222.455043 
L 251.423667 221.504736 
L 254.663417 220.325564 
L 257.81302 218.92327 
L 260.857132 217.304687 
L 263.780922 215.4777 
L 266.570145 213.451211 
L 269.211214 211.235091 
L 271.69126 208.840139 
L 273.998201 206.278021 
L 276.120799 203.56122 
L 278.048711 200.702972 
L 279.772546 197.717202 
L 281.283905 194.618457 
L 282.575425 191.421833 
L 283.640814 188.142904 
L 284.47488 184.797645 
L 285.073562 181.402353 
L 285.433942 177.97357 
L 285.554264 174.528 
L 285.554264 174.528 
" style="fill:none;stroke:#b0b0b0;stroke-linecap:square;stroke-width:0.8;"/>
     </g>
     <g id="text_10">
      <!-- 10 -->
      <g transform="translate(281.794349 153.545946)scale(0.1 -0.1)">
       <use xlink:href="#DejaVuSans-49"/>
       <use x="63.623047" xlink:href="#DejaVuSans-48"/>
      </g>
     </g>
    </g>
    <g id="ytick_3">
     <g id="line2d_11">
      <path clip-path="url(#p6787a8f9fd)" d="M 310.251395 174.528 
L 310.070912 169.359646 
L 309.530343 164.216471 
L 308.632321 159.123533 
L 307.38122 154.105644 
L 305.783137 149.18725 
L 303.845858 144.392315 
L 301.578819 139.744197 
L 298.993067 135.265542 
L 296.101198 130.978171 
L 292.917302 126.902969 
L 289.45689 123.059792 
L 285.73682 119.467363 
L 281.775218 116.143184 
L 277.591382 113.103449 
L 273.205698 110.362969 
L 268.63953 107.935095 
L 263.915125 105.831654 
L 259.0555 104.062896 
L 254.084331 102.637436 
L 249.025836 101.562219 
L 243.90466 100.842485 
L 238.745752 100.481739 
L 233.574248 100.481739 
L 228.41534 100.842485 
L 223.294164 101.562219 
L 218.235669 102.637436 
L 213.2645 104.062896 
L 208.404875 105.831654 
L 203.68047 107.935095 
L 199.114302 110.362969 
L 194.728618 113.103449 
L 190.544782 116.143184 
L 186.58318 119.467363 
L 182.86311 123.059792 
L 179.402698 126.902969 
L 176.218802 130.978171 
L 173.326933 135.265542 
L 170.741181 139.744197 
L 168.474142 144.392315 
L 166.536863 149.18725 
L 164.93878 154.105644 
L 163.687679 159.123533 
L 162.789657 164.216471 
L 162.249088 169.359646 
L 162.068605 174.528 
L 162.249088 179.696354 
L 162.789657 184.839529 
L 163.687679 189.932467 
L 164.93878 194.950356 
L 166.536863 199.86875 
L 168.474142 204.663685 
L 170.741181 209.311803 
L 173.326933 213.790458 
L 176.218802 218.077829 
L 179.402698 222.153031 
L 182.86311 225.996208 
L 186.58318 229.588637 
L 190.544782 232.912816 
L 194.728618 235.952551 
L 199.114302 238.693031 
L 203.68047 241.120905 
L 208.404875 243.224346 
L 213.2645 244.993104 
L 218.235669 246.418564 
L 223.294164 247.493781 
L 228.41534 248.213515 
L 233.574248 248.574261 
L 238.745752 248.574261 
L 243.90466 248.213515 
L 249.025836 247.493781 
L 254.084331 246.418564 
L 259.0555 244.993104 
L 263.915125 243.224346 
L 268.63953 241.120905 
L 273.205698 238.693031 
L 277.591382 235.952551 
L 281.775218 232.912816 
L 285.73682 229.588637 
L 289.45689 225.996208 
L 292.917302 222.153031 
L 296.101198 218.077829 
L 298.993067 213.790458 
L 301.578819 209.311803 
L 303.845858 204.663685 
L 305.783137 199.86875 
L 307.38122 194.950356 
L 308.632321 189.932467 
L 309.530343 184.839529 
L 310.070912 179.696354 
L 310.251395 174.528 
L 310.251395 174.528 
" style="fill:none;stroke:#b0b0b0;stroke-linecap:square;stroke-width:0.8;"/>
     </g>
     <g id="text_11">
      <!-- 15 -->
      <g transform="translate(304.611524 144.094763)scale(0.1 -0.1)">
       <use xlink:href="#DejaVuSans-49"/>
       <use x="63.623047" xlink:href="#DejaVuSans-53"/>
      </g>
     </g>
    </g>
    <g id="ytick_4">
     <g id="line2d_12">
      <path clip-path="url(#p6787a8f9fd)" d="M 334.948527 174.528 
L 334.888348 171.08033 
L 334.707883 167.636861 
L 334.407353 164.201787 
L 333.987124 160.779294 
L 333.447707 157.373552 
L 332.789761 153.98871 
L 332.014086 150.628892 
L 331.121627 147.298192 
L 330.113472 144.000666 
L 328.99085 140.740334 
L 327.755127 137.521166 
L 326.40781 134.347086 
L 324.95054 131.22196 
L 323.385092 128.149596 
L 321.713374 125.133736 
L 319.937422 122.178056 
L 318.059401 119.286157 
L 316.081597 116.461561 
L 314.006422 113.70771 
L 311.836402 111.027959 
L 309.574183 108.425573 
L 307.222519 105.903723 
L 304.784277 103.465481 
L 302.262427 101.113817 
L 299.660041 98.851598 
L 296.98029 96.681578 
L 294.226439 94.606403 
L 291.401843 92.628599 
L 288.509944 90.750578 
L 285.554264 88.974626 
L 282.538404 87.302908 
L 279.46604 85.73746 
L 276.340914 84.28019 
L 273.166834 82.932873 
L 269.947666 81.69715 
L 266.687334 80.574528 
L 263.389808 79.566373 
L 260.059108 78.673914 
L 256.69929 77.898239 
L 253.314448 77.240293 
L 249.908706 76.700876 
L 246.486213 76.280647 
L 243.051139 75.980117 
L 239.60767 75.799652 
L 236.16 75.739473 
L 232.71233 75.799652 
L 229.268861 75.980117 
L 225.833787 76.280647 
L 222.411294 76.700876 
L 219.005552 77.240293 
L 215.62071 77.898239 
L 212.260892 78.673914 
L 208.930192 79.566373 
L 205.632666 80.574528 
L 202.372334 81.69715 
L 199.153166 82.932873 
L 195.979086 84.28019 
L 192.85396 85.73746 
L 189.781596 87.302908 
L 186.765736 88.974626 
L 183.810056 90.750578 
L 180.918157 92.628599 
L 178.093561 94.606403 
L 175.33971 96.681578 
L 172.659959 98.851598 
L 170.057573 101.113817 
L 167.535723 103.465481 
L 165.097481 105.903723 
L 162.745817 108.425573 
L 160.483598 111.027959 
L 158.313578 113.70771 
L 156.238403 116.461561 
L 154.260599 119.286157 
L 152.382578 122.178056 
L 150.606626 125.133736 
L 148.934908 128.149596 
L 147.36946 131.22196 
L 145.91219 134.347086 
L 144.564873 137.521166 
L 143.32915 140.740334 
L 142.206528 144.000666 
L 141.198373 147.298192 
L 140.305914 150.628892 
L 139.530239 153.98871 
L 138.872293 157.373552 
L 138.332876 160.779294 
L 137.912647 164.201787 
L 137.612117 167.636861 
L 137.431652 171.08033 
L 137.371473 174.528 
L 137.431652 177.97567 
L 137.612117 181.419139 
L 137.912647 184.854213 
L 138.332876 188.276706 
L 138.872293 191.682448 
L 139.530239 195.06729 
L 140.305914 198.427108 
L 141.198373 201.757808 
L 142.206528 205.055334 
L 143.32915 208.315666 
L 144.564873 211.534834 
L 145.91219 214.708914 
L 147.36946 217.83404 
L 148.934908 220.906404 
L 150.606626 223.922264 
L 152.382578 226.877944 
L 154.260599 229.769843 
L 156.238403 232.594439 
L 158.313578 235.34829 
L 160.483598 238.028041 
L 162.745817 240.630427 
L 165.097481 243.152277 
L 167.535723 245.590519 
L 170.057573 247.942183 
L 172.659959 250.204402 
L 175.33971 252.374422 
L 178.093561 254.449597 
L 180.918157 256.427401 
L 183.810056 258.305422 
L 186.765736 260.081374 
L 189.781596 261.753092 
L 192.85396 263.31854 
L 195.979086 264.77581 
L 199.153166 266.123127 
L 202.372334 267.35885 
L 205.632666 268.481472 
L 208.930192 269.489627 
L 212.260892 270.382086 
L 215.62071 271.157761 
L 219.005552 271.815707 
L 222.411294 272.355124 
L 225.833787 272.775353 
L 229.268861 273.075883 
L 232.71233 273.256348 
L 236.16 273.316527 
L 239.60767 273.256348 
L 243.051139 273.075883 
L 246.486213 272.775353 
L 249.908706 272.355124 
L 253.314448 271.815707 
L 256.69929 271.157761 
L 260.059108 270.382086 
L 263.389808 269.489627 
L 266.687334 268.481472 
L 269.947666 267.35885 
L 273.166834 266.123127 
L 276.340914 264.77581 
L 279.46604 263.31854 
L 282.538404 261.753092 
L 285.554264 260.081374 
L 288.509944 258.305422 
L 291.401843 256.427401 
L 294.226439 254.449597 
L 296.98029 252.374422 
L 299.660041 250.204402 
L 302.262427 247.942183 
L 304.784277 245.590519 
L 307.222519 243.152277 
L 309.574183 240.630427 
L 311.836402 238.028041 
L 314.006422 235.34829 
L 316.081597 232.594439 
L 318.059401 229.769843 
L 319.937422 226.877944 
L 321.713374 223.922264 
L 323.385092 220.906404 
L 324.95054 217.83404 
L 326.40781 214.708914 
L 327.755127 211.534834 
L 328.99085 208.315666 
L 330.113472 205.055334 
L 331.121627 201.757808 
L 332.014086 198.427108 
L 332.789761 195.06729 
L 333.447707 191.682448 
L 333.987124 188.276706 
L 334.407353 184.854213 
L 334.707883 181.419139 
L 334.888348 177.97567 
L 334.948527 174.528 
L 334.948527 174.528 
" style="fill:none;stroke:#b0b0b0;stroke-linecap:square;stroke-width:0.8;"/>
     </g>
     <g id="text_12">
      <!-- 20 -->
      <g transform="translate(327.428698 134.64358)scale(0.1 -0.1)">
       <use xlink:href="#DejaVuSans-50"/>
       <use x="63.623047" xlink:href="#DejaVuSans-48"/>
      </g>
     </g>
    </g>
    <g id="ytick_5">
     <g id="line2d_13">
      <path clip-path="url(#p6787a8f9fd)" d="M 359.645659 174.528 
L 359.570435 170.218413 
L 359.344854 165.914076 
L 358.969192 161.620234 
L 358.443905 157.342118 
L 357.769634 153.08494 
L 356.947201 148.853888 
L 355.977607 144.654115 
L 354.862034 140.49074 
L 353.601841 136.368833 
L 352.198562 132.293417 
L 350.653909 128.269458 
L 348.969763 124.301858 
L 347.148175 120.39545 
L 345.191365 116.554995 
L 343.101718 112.785171 
L 340.881778 109.090571 
L 338.534251 105.475696 
L 336.061997 101.944951 
L 333.468027 98.502637 
L 330.755503 95.152949 
L 327.927728 91.899966 
L 324.988149 88.747653 
L 321.940347 85.699851 
L 318.788034 82.760272 
L 315.535051 79.932497 
L 312.185363 77.219973 
L 308.743049 74.626003 
L 305.212304 72.153749 
L 301.597429 69.806222 
L 297.902829 67.586282 
L 294.133005 65.496635 
L 290.29255 63.539825 
L 286.386142 61.718237 
L 282.418542 60.034091 
L 278.394583 58.489438 
L 274.319167 57.086159 
L 270.19726 55.825966 
L 266.033885 54.710393 
L 261.834112 53.740799 
L 257.60306 52.918366 
L 253.345882 52.244095 
L 249.067766 51.718808 
L 244.773924 51.343146 
L 240.469587 51.117565 
L 236.16 51.042341 
L 231.850413 51.117565 
L 227.546076 51.343146 
L 223.252234 51.718808 
L 218.974118 52.244095 
L 214.71694 52.918366 
L 210.485888 53.740799 
L 206.286115 54.710393 
L 202.12274 55.825966 
L 198.000833 57.086159 
L 193.925417 58.489438 
L 189.901458 60.034091 
L 185.933858 61.718237 
L 182.02745 63.539825 
L 178.186995 65.496635 
L 174.417171 67.586282 
L 170.722571 69.806222 
L 167.107696 72.153749 
L 163.576951 74.626003 
L 160.134637 77.219973 
L 156.784949 79.932497 
L 153.531966 82.760272 
L 150.379653 85.699851 
L 147.331851 88.747653 
L 144.392272 91.899966 
L 141.564497 95.152949 
L 138.851973 98.502637 
L 136.258003 101.944951 
L 133.785749 105.475696 
L 131.438222 109.090571 
L 129.218282 112.785171 
L 127.128635 116.554995 
L 125.171825 120.39545 
L 123.350237 124.301858 
L 121.666091 128.269458 
L 120.121438 132.293417 
L 118.718159 136.368833 
L 117.457966 140.49074 
L 116.342393 144.654115 
L 115.372799 148.853888 
L 114.550366 153.08494 
L 113.876095 157.342118 
L 113.350808 161.620234 
L 112.975146 165.914076 
L 112.749565 170.218413 
L 112.674341 174.528 
L 112.749565 178.837587 
L 112.975146 183.141924 
L 113.350808 187.435766 
L 113.876095 191.713882 
L 114.550366 195.97106 
L 115.372799 200.202112 
L 116.342393 204.401885 
L 117.457966 208.56526 
L 118.718159 212.687167 
L 120.121438 216.762583 
L 121.666091 220.786542 
L 123.350237 224.754142 
L 125.171825 228.66055 
L 127.128635 232.501005 
L 129.218282 236.270829 
L 131.438222 239.965429 
L 133.785749 243.580304 
L 136.258003 247.111049 
L 138.851973 250.553363 
L 141.564497 253.903051 
L 144.392272 257.156034 
L 147.331851 260.308347 
L 150.379653 263.356149 
L 153.531966 266.295728 
L 156.784949 269.123503 
L 160.134637 271.836027 
L 163.576951 274.429997 
L 167.107696 276.902251 
L 170.722571 279.249778 
L 174.417171 281.469718 
L 178.186995 283.559365 
L 182.02745 285.516175 
L 185.933858 287.337763 
L 189.901458 289.021909 
L 193.925417 290.566562 
L 198.000833 291.969841 
L 202.12274 293.230034 
L 206.286115 294.345607 
L 210.485888 295.315201 
L 214.71694 296.137634 
L 218.974118 296.811905 
L 223.252234 297.337192 
L 227.546076 297.712854 
L 231.850413 297.938435 
L 236.16 298.013659 
L 240.469587 297.938435 
L 244.773924 297.712854 
L 249.067766 297.337192 
L 253.345882 296.811905 
L 257.60306 296.137634 
L 261.834112 295.315201 
L 266.033885 294.345607 
L 270.19726 293.230034 
L 274.319167 291.969841 
L 278.394583 290.566562 
L 282.418542 289.021909 
L 286.386142 287.337763 
L 290.29255 285.516175 
L 294.133005 283.559365 
L 297.902829 281.469718 
L 301.597429 279.249778 
L 305.212304 276.902251 
L 308.743049 274.429997 
L 312.185363 271.836027 
L 315.535051 269.123503 
L 318.788034 266.295728 
L 321.940347 263.356149 
L 324.988149 260.308347 
L 327.927728 257.156034 
L 330.755503 253.903051 
L 333.468027 250.553363 
L 336.061997 247.111049 
L 338.534251 243.580304 
L 340.881778 239.965429 
L 343.101718 236.270829 
L 345.191365 232.501005 
L 347.148175 228.66055 
L 348.969763 224.754142 
L 350.653909 220.786542 
L 352.198562 216.762583 
L 353.601841 212.687167 
L 354.862034 208.56526 
L 355.977607 204.401885 
L 356.947201 200.202112 
L 357.769634 195.97106 
L 358.443905 191.713882 
L 358.969192 187.435766 
L 359.344854 183.141924 
L 359.570435 178.837587 
L 359.645659 174.528 
L 359.645659 174.528 
" style="fill:none;stroke:#b0b0b0;stroke-linecap:square;stroke-width:0.8;"/>
     </g>
     <g id="text_13">
      <!-- 25 -->
      <g transform="translate(350.245873 125.192397)scale(0.1 -0.1)">
       <use xlink:href="#DejaVuSans-50"/>
       <use x="63.623047" xlink:href="#DejaVuSans-53"/>
      </g>
     </g>
    </g>
   </g>
   <g id="line2d_14">
    <path clip-path="url(#p6787a8f9fd)" d="M 292.144257 174.528 
L 284.237953 172.849081 
L 279.366389 171.506715 
L 266.94829 167.419963 
L 265.557628 166.650929 
L 264.6125 165.829198 
L 264.306107 165.382776 
L 264.113818 164.902729 
L 264.023862 163.832065 
L 264.139023 162.651609 
L 264.290677 162.003416 
L 264.598215 161.267043 
L 265.841767 159.404384 
L 267.803175 156.987902 
L 269.391603 155.341725 
L 272.084043 152.942657 
L 276.01883 149.621439 
L 278.783519 146.847963 
L 276.643116 147.221794 
L 267.967886 151.418218 
L 266.16508 151.917551 
L 266.067444 151.161744 
L 267.359244 149.26335 
L 269.444921 146.598635 
L 270.858399 144.365142 
L 270.169 143.906158 
L 262.547492 147.202952 
L 258.85549 149.322104 
L 256.045154 150.829796 
L 255.161116 151.063576 
L 254.551047 150.988533 
L 254.136079 150.672938 
L 253.846492 150.184633 
L 253.473313 148.859958 
L 253.03894 146.436726 
L 252.730032 145.827864 
L 252.292229 145.424689 
L 251.21654 144.977877 
L 249.508902 144.545875 
L 248.852983 144.625206 
L 246.045591 145.81816 
L 245.510281 145.750793 
L 244.046054 145.096846 
L 241.932539 144.830864 
L 241.481926 144.345855 
L 241.063459 143.568775 
L 240.664937 142.47371 
L 239.873332 139.198004 
L 238.442185 130.981323 
L 237.059766 122.980454 
L 236.16 118.35203 
L 235.099702 113.783574 
L 233.913222 110.188694 
L 232.710208 108.702038 
L 231.648191 110.006132 
L 230.847862 113.80999 
L 230.305361 118.82483 
L 229.640916 128.142305 
L 228.665918 144.470877 
L 228.246074 146.928862 
L 227.970067 147.739936 
L 227.63543 148.292073 
L 227.231006 148.59632 
L 226.744017 148.657799 
L 226.154038 148.461578 
L 225.423337 147.953827 
L 223.444567 145.968669 
L 222.556498 145.355197 
L 222.168015 145.84018 
L 222.04389 146.823575 
L 221.81264 147.544541 
L 221.362217 147.832092 
L 220.724919 147.793656 
L 219.221699 147.421052 
L 218.525354 147.373026 
L 217.240838 147.508637 
L 216.452335 147.402727 
L 212.199187 145.972615 
L 209.189573 145.605758 
L 208.666535 146.057684 
L 209.015553 147.383553 
L 211.622706 152.434521 
L 211.787165 153.341017 
L 211.518415 153.851255 
L 210.282265 154.310097 
L 208.873848 154.70345 
L 207.786468 154.660639 
L 206.070347 154.232273 
L 203.37359 153.236257 
L 199.125077 151.386012 
L 183.533867 144.144288 
L 175.111147 140.688068 
L 166.966312 137.737064 
L 165.596102 138.573898 
L 174.150859 144.284121 
L 193.415216 156.383916 
L 199.616865 160.500405 
L 201.462573 161.899169 
L 202.660143 162.993074 
L 203.319863 163.857593 
L 203.526474 164.55093 
L 203.349733 165.119807 
L 202.857107 165.604517 
L 202.117953 166.040364 
L 200.071757 166.857207 
L 197.087293 167.638428 
L 193.480547 168.529794 
L 192.538751 169.171984 
L 192.791765 169.969815 
L 195.889491 172.417512 
L 196.358526 173.138102 
L 196.338882 173.83292 
L 195.804055 174.528 
L 194.716551 175.251398 
L 192.987736 176.035609 
L 190.43839 176.924168 
L 176.907196 180.755721 
L 173.329572 182.242606 
L 171.527515 183.611503 
L 171.55307 184.760732 
L 174.544456 185.392483 
L 183.121913 185.801593 
L 185.543206 186.213808 
L 186.513257 186.906323 
L 186.251577 187.900922 
L 184.920714 189.220629 
L 182.620717 190.896601 
L 179.397596 192.971223 
L 175.18017 195.525039 
L 169.572624 198.763823 
L 161.559304 203.164524 
L 150.117551 209.291406 
L 139.427456 215.588529 
L 142.256823 216.336388 
L 156.439231 211.702405 
L 168.852524 207.35605 
L 176.206467 205.075851 
L 179.215148 204.806115 
L 177.901993 206.820941 
L 171.617376 211.791702 
L 165.683866 216.874333 
L 172.371112 214.387721 
L 182.907998 209.110254 
L 189.567455 205.955069 
L 193.455914 204.429723 
L 196.060308 203.662131 
L 201.758955 202.385417 
L 203.846766 201.642023 
L 211.410422 198.428389 
L 213.656468 197.83109 
L 214.491284 197.764853 
L 215.148533 197.863599 
L 215.629038 198.14617 
L 215.929697 198.637536 
L 216.04883 199.363227 
L 215.959738 202.331275 
L 216.26066 202.947203 
L 218.073184 204.629518 
L 218.496882 205.121419 
L 219.219222 206.388969 
L 219.829397 206.578613 
L 220.704898 206.215654 
L 222.549321 205.098084 
L 224.134111 204.293119 
L 226.433212 202.776643 
L 227.048009 202.571825 
L 227.563778 202.644977 
L 227.997098 202.995422 
L 228.727535 204.337988 
L 229.523369 205.750894 
L 230.992508 207.154262 
L 231.396066 208.42515 
L 231.693634 210.903634 
L 231.880107 215.248464 
L 232.241623 230.563405 
L 232.661456 241.284192 
L 233.356811 254.800825 
L 234.816391 251.5033 
L 237.703026 218.714496 
L 238.634776 209.918941 
L 239.408327 205.433763 
L 240.163221 203.0124 
L 240.933704 201.601018 
L 241.343958 201.197152 
L 241.778105 200.959106 
L 242.711462 200.804478 
L 245.228531 200.864926 
L 246.397823 201.198442 
L 247.084301 201.566594 
L 247.885524 202.151604 
L 249.993223 204.193442 
L 251.26401 205.49581 
L 252.416529 206.433235 
L 253.172591 206.52403 
L 253.540708 205.883628 
L 253.98057 204.186409 
L 254.514231 203.900909 
L 255.583051 204.436876 
L 258.923814 207.038096 
L 260.785692 208.422357 
L 264.142326 211.661801 
L 267.086534 214.112158 
L 265.379718 210.611346 
L 262.437077 205.843801 
L 260.624578 202.671277 
L 260.091389 201.1065 
L 260.563642 200.697702 
L 261.842236 201.122734 
L 263.866512 202.234512 
L 270.447714 206.50181 
L 289.879874 219.604327 
L 299.822801 226.081119 
L 310.847067 232.879932 
L 320.570061 238.135544 
L 326.480631 240.149779 
L 330.033509 240.258939 
L 334.433184 240.8141 
L 338.826022 241.200094 
L 339.729737 239.245555 
L 340.207002 237.045746 
L 333.972119 230.999853 
L 319.093505 220.498792 
L 307.117295 212.256663 
L 299.892226 207.001191 
L 295.803116 203.617892 
L 293.645148 201.333765 
L 292.656303 199.681775 
L 292.281906 198.350336 
L 291.776427 195.877146 
L 290.280704 192.112883 
L 290.438765 191.122684 
L 291.513799 190.400446 
L 293.906957 190.00125 
L 298.116847 189.975577 
L 304.81662 190.37863 
L 327.853373 192.351386 
L 342.28551 193.240791 
L 355.680583 193.458201 
L 362.920389 192.343011 
L 360.764336 189.827489 
L 350.908717 186.588576 
L 337.31821 183.378197 
L 324.496509 180.70509 
L 304.860349 176.927069 
L 292.144257 174.528 
L 292.144257 174.528 
" style="fill:none;stroke:#1f77b4;stroke-linecap:square;stroke-opacity:0.55;stroke-width:3;"/>
   </g>
   <g id="patch_3">
    <path d="M 369.216 174.528 
C 369.216 157.055246 365.774248 139.752393 359.087715 123.609673 
C 352.401182 107.466954 342.599903 92.798303 330.2448 80.4432 
C 317.889697 68.088097 303.221046 58.286818 287.078327 51.600285 
C 270.935607 44.913752 253.632754 41.472 236.16 41.472 
C 218.687246 41.472 201.384393 44.913752 185.241673 51.600285 
C 169.098954 58.286818 154.430303 68.088097 142.0752 80.4432 
C 129.720097 92.798303 119.918818 107.466954 113.232285 123.609673 
C 106.545752 139.752393 103.104 157.055246 103.104 174.528 
C 103.104 192.000754 106.545752 209.303607 113.232285 225.446327 
C 119.918818 241.589046 129.720097 256.257697 142.0752 268.6128 
C 154.430303 280.967903 169.098954 290.769182 185.241673 297.455715 
C 201.384393 304.142248 218.687246 307.584 236.16 307.584 
C 253.632754 307.584 270.935607 304.142248 287.078327 297.455715 
C 303.221046 290.769182 317.889697 280.967903 330.2448 268.6128 
C 342.599903 256.257697 352.401182 241.589046 359.087715 225.446327 
C 365.774248 209.303607 369.216 192.000754 369.216 174.528 
" style="fill:none;stroke:#000000;stroke-linecap:square;stroke-linejoin:miter;stroke-width:0.8;"/>
   </g>
  </g>
 </g>
 <defs>
  <clipPath id="p6787a8f9fd">
   <path d="M 369.216 174.528 
C 369.216 157.055246 365.774248 139.752393 359.087715 123.609673 
C 352.401182 107.466954 342.599903 92.798303 330.2448 80.4432 
C 317.889697 68.088097 303.221046 58.286818 287.078327 51.600285 
C 270.935607 44.913752 253.632754 41.472 236.16 41.472 
C 218.687246 41.472 201.384393 44.913752 185.241673 51.600285 
C 169.098954 58.286818 154.430303 68.088097 142.0752 80.4432 
C 129.720097 92.798303 119.918818 107.466954 113.232285 123.609673 
C 106.545752 139.752393 103.104 157.055246 103.104 174.528 
C 103.104 192.000754 106.545752 209.303607 113.232285 225.446327 
C 119.918818 241.589046 129.720097 256.257697 142.0752 268.6128 
C 154.430303 280.967903 169.098954 290.769182 185.241673 297.455715 
C 201.384393 304.142248 218.687246 307.584 236.16 307.584 
C 253.632754 307.584 270.935607 304.142248 287.078327 297.455715 
C 303.221046 290.769182 317.889697 280.967903 330.2448 268.6128 
C 342.599903 256.257697 352.401182 241.589046 359.087715 225.446327 
C 365.774248 209.303607 369.216 192.000754 369.216 174.528 
M 236.16 174.528 
C 236.16 174.528 236.16 174.528 236.16 174.528 
C 236.16 174.528 236.16 174.528 236.16 174.528 
C 236.16 174.528 236.16 174.528 236.16 174.528 
C 236.16 174.528 236.16 174.528 236.16 174.528 
C 236.16 174.528 236.16 174.528 236.16 174.528 
C 236.16 174.528 236.16 174.528 236.16 174.528 
C 236.16 174.528 236.16 174.528 236.16 174.528 
C 236.16 174.528 236.16 174.528 236.16 174.528 
C 236.16 174.528 236.16 174.528 236.16 174.528 
C 236.16 174.528 236.16 174.528 236.16 174.528 
C 236.16 174.528 236.16 174.528 236.16 174.528 
C 236.16 174.528 236.16 174.528 236.16 174.528 
C 236.16 174.528 236.16 174.528 236.16 174.528 
C 236.16 174.528 236.16 174.528 236.16 174.528 
C 236.16 174.528 236.16 174.528 236.16 174.528 
C 236.16 174.528 236.16 174.528 236.16 174.528 
M 369.216 174.528 
z
"/>
  </clipPath>
 </defs>
</svg>
