<?xml version="1.0" encoding="utf-8" standalone="no"?>
<!DOCTYPE svg PUBLIC "-//W3C//DTD SVG 1.1//EN"
  "http://www.w3.org/Graphics/SVG/1.1/DTD/svg11.dtd">
<!-- Created with matplotlib (https://matplotlib.org/) -->
<svg height="345.6pt" version="1.1" viewBox="0 0 460.8 345.6" width="460.8pt" xmlns="http://www.w3.org/2000/svg" xmlns:xlink="http://www.w3.org/1999/xlink">
 <defs>
  <style type="text/css">
*{stroke-linecap:butt;stroke-linejoin:round;}
  </style>
 </defs>
 <g id="figure_1">
  <g id="patch_1">
   <path d="M 0 345.6 
L 460.8 345.6 
L 460.8 0 
L 0 0 
z
" style="fill:#ffffff;"/>
  </g>
  <g id="axes_1">
   <g id="patch_2">
    <path d="M 369.216 174.528 
C 369.216 157.055246 365.774248 139.752393 359.087715 123.609673 
C 352.401182 107.466954 342.599903 92.798303 330.2448 80.4432 
C 317.889697 68.088097 303.221046 58.286818 287.078327 51.600285 
C 270.935607 44.913752 253.632754 41.472 236.16 41.472 
C 218.687246 41.472 201.384393 44.913752 185.241673 51.600285 
C 169.098954 58.286818 154.430303 68.088097 142.0752 80.4432 
C 129.720097 92.798303 119.918818 107.466954 113.232285 123.609673 
C 106.545752 139.752393 103.104 157.055246 103.104 174.528 
C 103.104 192.000754 106.545752 209.303607 113.232285 225.446327 
C 119.918818 241.589046 129.720097 256.257697 142.0752 268.6128 
C 154.430303 280.967903 169.098954 290.769182 185.241673 297.455715 
C 201.384393 304.142248 218.687246 307.584 236.16 307.584 
C 253.632754 307.584 270.935607 304.142248 287.078327 297.455715 
C 303.221046 290.769182 317.889697 280.967903 330.2448 268.6128 
C 342.599903 256.257697 352.401182 241.589046 359.087715 225.446327 
C 365.774248 209.303607 369.216 192.000754 369.216 174.528 
M 236.16 174.528 
C 236.16 174.528 236.16 174.528 236.16 174.528 
C 236.16 174.528 236.16 174.528 236.16 174.528 
C 236.16 174.528 236.16 174.528 236.16 174.528 
C 236.16 174.528 236.16 174.528 236.16 174.528 
C 236.16 174.528 236.16 174.528 236.16 174.528 
C 236.16 174.528 236.16 174.528 236.16 174.528 
C 236.16 174.528 236.16 174.528 236.16 174.528 
C 236.16 174.528 236.16 174.528 236.16 174.528 
C 236.16 174.528 236.16 174.528 236.16 174.528 
C 236.16 174.528 236.16 174.528 236.16 174.528 
C 236.16 174.528 236.16 174.528 236.16 174.528 
C 236.16 174.528 236.16 174.528 236.16 174.528 
C 236.16 174.528 236.16 174.528 236.16 174.528 
C 236.16 174.528 236.16 174.528 236.16 174.528 
C 236.16 174.528 236.16 174.528 236.16 174.528 
C 236.16 174.528 236.16 174.528 236.16 174.528 
M 369.216 174.528 
z
" style="fill:#ffffff;"/>
   </g>
   <g id="matplotlib.axis_1">
    <g id="xtick_1">
     <g id="line2d_1">
      <path clip-path="url(#pb98951b132)" d="M 236.16 174.528 
L 369.216 174.528 
" style="fill:none;stroke:#b0b0b0;stroke-linecap:square;stroke-width:0.8;"/>
     </g>
     <g id="text_1">
      <!-- 0° -->
      <defs>
       <path d="M 31.78125 66.40625 
Q 24.171875 66.40625 20.328125 58.90625 
Q 16.5 51.421875 16.5 36.375 
Q 16.5 21.390625 20.328125 13.890625 
Q 24.171875 6.390625 31.78125 6.390625 
Q 39.453125 6.390625 43.28125 13.890625 
Q 47.125 21.390625 47.125 36.375 
Q 47.125 51.421875 43.28125 58.90625 
Q 39.453125 66.40625 31.78125 66.40625 
z
M 31.78125 74.21875 
Q 44.046875 74.21875 50.515625 64.515625 
Q 56.984375 54.828125 56.984375 36.375 
Q 56.984375 17.96875 50.515625 8.265625 
Q 44.046875 -1.421875 31.78125 -1.421875 
Q 19.53125 -1.421875 13.0625 8.265625 
Q 6.59375 17.96875 6.59375 36.375 
Q 6.59375 54.828125 13.0625 64.515625 
Q 19.53125 74.21875 31.78125 74.21875 
z
" id="DejaVuSans-48"/>
       <path d="M 25 67.921875 
Q 21.09375 67.921875 18.40625 65.203125 
Q 15.71875 62.5 15.71875 58.59375 
Q 15.71875 54.734375 18.40625 52.078125 
Q 21.09375 49.421875 25 49.421875 
Q 28.90625 49.421875 31.59375 52.078125 
Q 34.28125 54.734375 34.28125 58.59375 
Q 34.28125 62.453125 31.5625 65.1875 
Q 28.859375 67.921875 25 67.921875 
z
M 25 74.21875 
Q 28.125 74.21875 31 73.015625 
Q 33.890625 71.828125 35.984375 69.578125 
Q 38.234375 67.390625 39.359375 64.59375 
Q 40.484375 61.8125 40.484375 58.59375 
Q 40.484375 52.15625 35.96875 47.6875 
Q 31.453125 43.21875 24.90625 43.21875 
Q 18.3125 43.21875 13.90625 47.609375 
Q 9.515625 52 9.515625 58.59375 
Q 9.515625 65.140625 14 69.671875 
Q 18.5 74.21875 25 74.21875 
z
" id="DejaVuSans-176"/>
      </defs>
      <g transform="translate(377.53475 177.287375)scale(0.1 -0.1)">
       <use xlink:href="#DejaVuSans-48"/>
       <use x="63.623047" xlink:href="#DejaVuSans-176"/>
      </g>
     </g>
    </g>
    <g id="xtick_2">
     <g id="line2d_2">
      <path clip-path="url(#pb98951b132)" d="M 236.16 174.528 
L 330.2448 80.4432 
" style="fill:none;stroke:#b0b0b0;stroke-linecap:square;stroke-width:0.8;"/>
     </g>
     <g id="text_2">
      <!-- 45° -->
      <defs>
       <path d="M 37.796875 64.3125 
L 12.890625 25.390625 
L 37.796875 25.390625 
z
M 35.203125 72.90625 
L 47.609375 72.90625 
L 47.609375 25.390625 
L 58.015625 25.390625 
L 58.015625 17.1875 
L 47.609375 17.1875 
L 47.609375 0 
L 37.796875 0 
L 37.796875 17.1875 
L 4.890625 17.1875 
L 4.890625 26.703125 
z
" id="DejaVuSans-52"/>
       <path d="M 10.796875 72.90625 
L 49.515625 72.90625 
L 49.515625 64.59375 
L 19.828125 64.59375 
L 19.828125 46.734375 
Q 21.96875 47.46875 24.109375 47.828125 
Q 26.265625 48.1875 28.421875 48.1875 
Q 40.625 48.1875 47.75 41.5 
Q 54.890625 34.8125 54.890625 23.390625 
Q 54.890625 11.625 47.5625 5.09375 
Q 40.234375 -1.421875 26.90625 -1.421875 
Q 22.3125 -1.421875 17.546875 -0.640625 
Q 12.796875 0.140625 7.71875 1.703125 
L 7.71875 11.625 
Q 12.109375 9.234375 16.796875 8.0625 
Q 21.484375 6.890625 26.703125 6.890625 
Q 35.15625 6.890625 40.078125 11.328125 
Q 45.015625 15.765625 45.015625 23.390625 
Q 45.015625 31 40.078125 35.4375 
Q 35.15625 39.890625 26.703125 39.890625 
Q 22.75 39.890625 18.8125 39.015625 
Q 14.890625 38.140625 10.796875 36.28125 
z
" id="DejaVuSans-53"/>
      </defs>
      <g transform="translate(331.281795 73.30308)scale(0.1 -0.1)">
       <use xlink:href="#DejaVuSans-52"/>
       <use x="63.623047" xlink:href="#DejaVuSans-53"/>
       <use x="127.246094" xlink:href="#DejaVuSans-176"/>
      </g>
     </g>
    </g>
    <g id="xtick_3">
     <g id="line2d_3">
      <path clip-path="url(#pb98951b132)" d="M 236.16 174.528 
L 236.16 41.472 
" style="fill:none;stroke:#b0b0b0;stroke-linecap:square;stroke-width:0.8;"/>
     </g>
     <g id="text_3">
      <!-- 90° -->
      <defs>
       <path d="M 10.984375 1.515625 
L 10.984375 10.5 
Q 14.703125 8.734375 18.5 7.8125 
Q 22.3125 6.890625 25.984375 6.890625 
Q 35.75 6.890625 40.890625 13.453125 
Q 46.046875 20.015625 46.78125 33.40625 
Q 43.953125 29.203125 39.59375 26.953125 
Q 35.25 24.703125 29.984375 24.703125 
Q 19.046875 24.703125 12.671875 31.3125 
Q 6.296875 37.9375 6.296875 49.421875 
Q 6.296875 60.640625 12.9375 67.421875 
Q 19.578125 74.21875 30.609375 74.21875 
Q 43.265625 74.21875 49.921875 64.515625 
Q 56.59375 54.828125 56.59375 36.375 
Q 56.59375 19.140625 48.40625 8.859375 
Q 40.234375 -1.421875 26.421875 -1.421875 
Q 22.703125 -1.421875 18.890625 -0.6875 
Q 15.09375 0.046875 10.984375 1.515625 
z
M 30.609375 32.421875 
Q 37.25 32.421875 41.125 36.953125 
Q 45.015625 41.5 45.015625 49.421875 
Q 45.015625 57.28125 41.125 61.84375 
Q 37.25 66.40625 30.609375 66.40625 
Q 23.96875 66.40625 20.09375 61.84375 
Q 16.21875 57.28125 16.21875 49.421875 
Q 16.21875 41.5 20.09375 36.953125 
Q 23.96875 32.421875 30.609375 32.421875 
z
" id="DejaVuSans-57"/>
      </defs>
      <g transform="translate(227.2975 30.231375)scale(0.1 -0.1)">
       <use xlink:href="#DejaVuSans-57"/>
       <use x="63.623047" xlink:href="#DejaVuSans-48"/>
       <use x="127.246094" xlink:href="#DejaVuSans-176"/>
      </g>
     </g>
    </g>
    <g id="xtick_4">
     <g id="line2d_4">
      <path clip-path="url(#pb98951b132)" d="M 236.16 174.528 
L 142.0752 80.4432 
" style="fill:none;stroke:#b0b0b0;stroke-linecap:square;stroke-width:0.8;"/>
     </g>
     <g id="text_4">
      <!-- 135° -->
      <defs>
       <path d="M 12.40625 8.296875 
L 28.515625 8.296875 
L 28.515625 63.921875 
L 10.984375 60.40625 
L 10.984375 69.390625 
L 28.421875 72.90625 
L 38.28125 72.90625 
L 38.28125 8.296875 
L 54.390625 8.296875 
L 54.390625 0 
L 12.40625 0 
z
" id="DejaVuSans-49"/>
       <path d="M 40.578125 39.3125 
Q 47.65625 37.796875 51.625 33 
Q 55.609375 28.21875 55.609375 21.1875 
Q 55.609375 10.40625 48.1875 4.484375 
Q 40.765625 -1.421875 27.09375 -1.421875 
Q 22.515625 -1.421875 17.65625 -0.515625 
Q 12.796875 0.390625 7.625 2.203125 
L 7.625 11.71875 
Q 11.71875 9.328125 16.59375 8.109375 
Q 21.484375 6.890625 26.8125 6.890625 
Q 36.078125 6.890625 40.9375 10.546875 
Q 45.796875 14.203125 45.796875 21.1875 
Q 45.796875 27.640625 41.28125 31.265625 
Q 36.765625 34.90625 28.71875 34.90625 
L 20.21875 34.90625 
L 20.21875 43.015625 
L 29.109375 43.015625 
Q 36.375 43.015625 40.234375 45.921875 
Q 44.09375 48.828125 44.09375 54.296875 
Q 44.09375 59.90625 40.109375 62.90625 
Q 36.140625 65.921875 28.71875 65.921875 
Q 24.65625 65.921875 20.015625 65.03125 
Q 15.375 64.15625 9.8125 62.3125 
L 9.8125 71.09375 
Q 15.4375 72.65625 20.34375 73.4375 
Q 25.25 74.21875 29.59375 74.21875 
Q 40.828125 74.21875 47.359375 69.109375 
Q 53.90625 64.015625 53.90625 55.328125 
Q 53.90625 49.265625 50.4375 45.09375 
Q 46.96875 40.921875 40.578125 39.3125 
z
" id="DejaVuSans-51"/>
      </defs>
      <g transform="translate(120.131955 73.30308)scale(0.1 -0.1)">
       <use xlink:href="#DejaVuSans-49"/>
       <use x="63.623047" xlink:href="#DejaVuSans-51"/>
       <use x="127.246094" xlink:href="#DejaVuSans-53"/>
       <use x="190.869141" xlink:href="#DejaVuSans-176"/>
      </g>
     </g>
    </g>
    <g id="xtick_5">
     <g id="line2d_5">
      <path clip-path="url(#pb98951b132)" d="M 236.16 174.528 
L 103.104 174.528 
" style="fill:none;stroke:#b0b0b0;stroke-linecap:square;stroke-width:0.8;"/>
     </g>
     <g id="text_5">
      <!-- 180° -->
      <defs>
       <path d="M 31.78125 34.625 
Q 24.75 34.625 20.71875 30.859375 
Q 16.703125 27.09375 16.703125 20.515625 
Q 16.703125 13.921875 20.71875 10.15625 
Q 24.75 6.390625 31.78125 6.390625 
Q 38.8125 6.390625 42.859375 10.171875 
Q 46.921875 13.96875 46.921875 20.515625 
Q 46.921875 27.09375 42.890625 30.859375 
Q 38.875 34.625 31.78125 34.625 
z
M 21.921875 38.8125 
Q 15.578125 40.375 12.03125 44.71875 
Q 8.5 49.078125 8.5 55.328125 
Q 8.5 64.0625 14.71875 69.140625 
Q 20.953125 74.21875 31.78125 74.21875 
Q 42.671875 74.21875 48.875 69.140625 
Q 55.078125 64.0625 55.078125 55.328125 
Q 55.078125 49.078125 51.53125 44.71875 
Q 48 40.375 41.703125 38.8125 
Q 48.828125 37.15625 52.796875 32.3125 
Q 56.78125 27.484375 56.78125 20.515625 
Q 56.78125 9.90625 50.3125 4.234375 
Q 43.84375 -1.421875 31.78125 -1.421875 
Q 19.734375 -1.421875 13.25 4.234375 
Q 6.78125 9.90625 6.78125 20.515625 
Q 6.78125 27.484375 10.78125 32.3125 
Q 14.796875 37.15625 21.921875 38.8125 
z
M 18.3125 54.390625 
Q 18.3125 48.734375 21.84375 45.5625 
Q 25.390625 42.390625 31.78125 42.390625 
Q 38.140625 42.390625 41.71875 45.5625 
Q 45.3125 48.734375 45.3125 54.390625 
Q 45.3125 60.0625 41.71875 63.234375 
Q 38.140625 66.40625 31.78125 66.40625 
Q 25.390625 66.40625 21.84375 63.234375 
Q 18.3125 60.0625 18.3125 54.390625 
z
" id="DejaVuSans-56"/>
      </defs>
      <g transform="translate(77.06025 177.287375)scale(0.1 -0.1)">
       <use xlink:href="#DejaVuSans-49"/>
       <use x="63.623047" xlink:href="#DejaVuSans-56"/>
       <use x="127.246094" xlink:href="#DejaVuSans-48"/>
       <use x="190.869141" xlink:href="#DejaVuSans-176"/>
      </g>
     </g>
    </g>
    <g id="xtick_6">
     <g id="line2d_6">
      <path clip-path="url(#pb98951b132)" d="M 236.16 174.528 
L 142.0752 268.6128 
" style="fill:none;stroke:#b0b0b0;stroke-linecap:square;stroke-width:0.8;"/>
     </g>
     <g id="text_6">
      <!-- 225° -->
      <defs>
       <path d="M 19.1875 8.296875 
L 53.609375 8.296875 
L 53.609375 0 
L 7.328125 0 
L 7.328125 8.296875 
Q 12.9375 14.109375 22.625 23.890625 
Q 32.328125 33.6875 34.8125 36.53125 
Q 39.546875 41.84375 41.421875 45.53125 
Q 43.3125 49.21875 43.3125 52.78125 
Q 43.3125 58.59375 39.234375 62.25 
Q 35.15625 65.921875 28.609375 65.921875 
Q 23.96875 65.921875 18.8125 64.3125 
Q 13.671875 62.703125 7.8125 59.421875 
L 7.8125 69.390625 
Q 13.765625 71.78125 18.9375 73 
Q 24.125 74.21875 28.421875 74.21875 
Q 39.75 74.21875 46.484375 68.546875 
Q 53.21875 62.890625 53.21875 53.421875 
Q 53.21875 48.921875 51.53125 44.890625 
Q 49.859375 40.875 45.40625 35.40625 
Q 44.1875 33.984375 37.640625 27.21875 
Q 31.109375 20.453125 19.1875 8.296875 
z
" id="DejaVuSans-50"/>
      </defs>
      <g transform="translate(120.131955 281.27167)scale(0.1 -0.1)">
       <use xlink:href="#DejaVuSans-50"/>
       <use x="63.623047" xlink:href="#DejaVuSans-50"/>
       <use x="127.246094" xlink:href="#DejaVuSans-53"/>
       <use x="190.869141" xlink:href="#DejaVuSans-176"/>
      </g>
     </g>
    </g>
    <g id="xtick_7">
     <g id="line2d_7">
      <path clip-path="url(#pb98951b132)" d="M 236.16 174.528 
L 236.16 307.584 
" style="fill:none;stroke:#b0b0b0;stroke-linecap:square;stroke-width:0.8;"/>
     </g>
     <g id="text_7">
      <!-- 270° -->
      <defs>
       <path d="M 8.203125 72.90625 
L 55.078125 72.90625 
L 55.078125 68.703125 
L 28.609375 0 
L 18.3125 0 
L 43.21875 64.59375 
L 8.203125 64.59375 
z
" id="DejaVuSans-55"/>
      </defs>
      <g transform="translate(224.11625 324.343375)scale(0.1 -0.1)">
       <use xlink:href="#DejaVuSans-50"/>
       <use x="63.623047" xlink:href="#DejaVuSans-55"/>
       <use x="127.246094" xlink:href="#DejaVuSans-48"/>
       <use x="190.869141" xlink:href="#DejaVuSans-176"/>
      </g>
     </g>
    </g>
    <g id="xtick_8">
     <g id="line2d_8">
      <path clip-path="url(#pb98951b132)" d="M 236.16 174.528 
L 330.2448 268.6128 
" style="fill:none;stroke:#b0b0b0;stroke-linecap:square;stroke-width:0.8;"/>
     </g>
     <g id="text_8">
      <!-- 315° -->
      <g transform="translate(328.100545 281.27167)scale(0.1 -0.1)">
       <use xlink:href="#DejaVuSans-51"/>
       <use x="63.623047" xlink:href="#DejaVuSans-49"/>
       <use x="127.246094" xlink:href="#DejaVuSans-53"/>
       <use x="190.869141" xlink:href="#DejaVuSans-176"/>
      </g>
     </g>
    </g>
   </g>
   <g id="matplotlib.axis_2">
    <g id="ytick_1">
     <g id="line2d_9">
      <path clip-path="url(#pb98951b132)" d="M 258.665049 174.528 
L 258.541764 172.175582 
L 258.17326 169.848937 
L 257.563574 167.573557 
L 256.719385 165.374372 
L 255.649944 163.275475 
L 254.366967 161.299864 
L 252.884511 159.469183 
L 251.218817 157.803489 
L 249.388136 156.321033 
L 247.412525 155.038056 
L 245.313628 153.968615 
L 243.114443 153.124426 
L 240.839063 152.51474 
L 238.512418 152.146236 
L 236.16 152.022951 
L 233.807582 152.146236 
L 231.480937 152.51474 
L 229.205557 153.124426 
L 227.006372 153.968615 
L 224.907475 155.038056 
L 222.931864 156.321033 
L 221.101183 157.803489 
L 219.435489 159.469183 
L 217.953033 161.299864 
L 216.670056 163.275475 
L 215.600615 165.374372 
L 214.756426 167.573557 
L 214.14674 169.848937 
L 213.778236 172.175582 
L 213.654951 174.528 
L 213.778236 176.880418 
L 214.14674 179.207063 
L 214.756426 181.482443 
L 215.600615 183.681628 
L 216.670056 185.780525 
L 217.953033 187.756136 
L 219.435489 189.586817 
L 221.101183 191.252511 
L 222.931864 192.734967 
L 224.907475 194.017944 
L 227.006372 195.087385 
L 229.205557 195.931574 
L 231.480937 196.54126 
L 233.807582 196.909764 
L 236.16 197.033049 
L 238.512418 196.909764 
L 240.839063 196.54126 
L 243.114443 195.931574 
L 245.313628 195.087385 
L 247.412525 194.017944 
L 249.388136 192.734967 
L 251.218817 191.252511 
L 252.884511 189.586817 
L 254.366967 187.756136 
L 255.649944 185.780525 
L 256.719385 183.681628 
L 257.563574 181.482443 
L 258.17326 179.207063 
L 258.541764 176.880418 
L 258.665049 174.528 
L 258.665049 174.528 
" style="fill:none;stroke:#b0b0b0;stroke-linecap:square;stroke-width:0.8;"/>
     </g>
     <g id="text_9">
      <!-- 10 -->
      <g transform="translate(256.951954 163.836003)scale(0.1 -0.1)">
       <use xlink:href="#DejaVuSans-49"/>
       <use x="63.623047" xlink:href="#DejaVuSans-48"/>
      </g>
     </g>
    </g>
    <g id="ytick_2">
     <g id="line2d_10">
      <path clip-path="url(#pb98951b132)" d="M 281.170098 174.528 
L 281.060456 171.388254 
L 280.732063 168.263805 
L 280.186519 165.169874 
L 279.426483 162.121536 
L 278.455657 159.13364 
L 277.278771 156.220744 
L 275.901558 153.397039 
L 274.330728 150.676282 
L 272.573934 148.071728 
L 270.639735 145.596067 
L 268.537555 143.261359 
L 266.277634 141.078979 
L 263.870983 139.059559 
L 261.329327 137.212938 
L 258.665049 135.548112 
L 255.891128 134.073192 
L 253.02108 132.795364 
L 250.068885 131.720853 
L 247.048928 130.854894 
L 243.975922 130.201706 
L 240.864836 129.764472 
L 237.73083 129.545321 
L 234.58917 129.545321 
L 231.455164 129.764472 
L 228.344078 130.201706 
L 225.271072 130.854894 
L 222.251115 131.720853 
L 219.29892 132.795364 
L 216.428872 134.073192 
L 213.654951 135.548112 
L 210.990673 137.212938 
L 208.449017 139.059559 
L 206.042366 141.078979 
L 203.782445 143.261359 
L 201.680265 145.596067 
L 199.746066 148.071728 
L 197.989272 150.676282 
L 196.418442 153.397039 
L 195.041229 156.220744 
L 193.864343 159.13364 
L 192.893517 162.121536 
L 192.133481 165.169874 
L 191.587937 168.263805 
L 191.259544 171.388254 
L 191.149902 174.528 
L 191.259544 177.667746 
L 191.587937 180.792195 
L 192.133481 183.886126 
L 192.893517 186.934464 
L 193.864343 189.92236 
L 195.041229 192.835256 
L 196.418442 195.658961 
L 197.989272 198.379718 
L 199.746066 200.984272 
L 201.680265 203.459933 
L 203.782445 205.794641 
L 206.042366 207.977021 
L 208.449017 209.996441 
L 210.990673 211.843062 
L 213.654951 213.507888 
L 216.428872 214.982808 
L 219.29892 216.260636 
L 222.251115 217.335147 
L 225.271072 218.201106 
L 228.344078 218.854294 
L 231.455164 219.291528 
L 234.58917 219.510679 
L 237.73083 219.510679 
L 240.864836 219.291528 
L 243.975922 218.854294 
L 247.048928 218.201106 
L 250.068885 217.335147 
L 253.02108 216.260636 
L 255.891128 214.982808 
L 258.665049 213.507888 
L 261.329327 211.843062 
L 263.870983 209.996441 
L 266.277634 207.977021 
L 268.537555 205.794641 
L 270.639735 203.459933 
L 272.573934 200.984272 
L 274.330728 198.379718 
L 275.901558 195.658961 
L 277.278771 192.835256 
L 278.455657 189.92236 
L 279.426483 186.934464 
L 280.186519 183.886126 
L 280.732063 180.792195 
L 281.060456 177.667746 
L 281.170098 174.528 
L 281.170098 174.528 
" style="fill:none;stroke:#b0b0b0;stroke-linecap:square;stroke-width:0.8;"/>
     </g>
     <g id="text_10">
      <!-- 20 -->
      <g transform="translate(277.743908 155.223694)scale(0.1 -0.1)">
       <use xlink:href="#DejaVuSans-50"/>
       <use x="63.623047" xlink:href="#DejaVuSans-48"/>
      </g>
     </g>
    </g>
    <g id="ytick_3">
     <g id="line2d_11">
      <path clip-path="url(#pb98951b132)" d="M 303.675147 174.528 
L 303.510684 169.818381 
L 303.018094 165.131708 
L 302.199779 160.490812 
L 301.059725 155.918303 
L 299.603486 151.43646 
L 297.838156 147.067116 
L 295.772337 142.831558 
L 293.416092 138.750423 
L 290.780901 134.843592 
L 287.879603 131.1301 
L 284.726332 127.628038 
L 281.336451 124.354468 
L 277.726475 121.325338 
L 273.913991 118.555406 
L 269.917574 116.058167 
L 265.756692 113.845788 
L 261.451619 111.929046 
L 257.023328 110.317279 
L 252.493392 109.018341 
L 247.883882 108.03856 
L 243.217255 107.382708 
L 238.516245 107.053981 
L 233.803755 107.053981 
L 229.102745 107.382708 
L 224.436118 108.03856 
L 219.826608 109.018341 
L 215.296672 110.317279 
L 210.868381 111.929046 
L 206.563308 113.845788 
L 202.402426 116.058167 
L 198.406009 118.555406 
L 194.593525 121.325338 
L 190.983549 124.354468 
L 187.593668 127.628038 
L 184.440397 131.1301 
L 181.539099 134.843592 
L 178.903908 138.750423 
L 176.547663 142.831558 
L 174.481844 147.067116 
L 172.716514 151.43646 
L 171.260275 155.918303 
L 170.120221 160.490812 
L 169.301906 165.131708 
L 168.809316 169.818381 
L 168.644853 174.528 
L 168.809316 179.237619 
L 169.301906 183.924292 
L 170.120221 188.565188 
L 171.260275 193.137697 
L 172.716514 197.61954 
L 174.481844 201.988884 
L 176.547663 206.224442 
L 178.903908 210.305577 
L 181.539099 214.212408 
L 184.440397 217.9259 
L 187.593668 221.427962 
L 190.983549 224.701532 
L 194.593525 227.730662 
L 198.406009 230.500594 
L 202.402426 232.997833 
L 206.563308 235.210212 
L 210.868381 237.126954 
L 215.296672 238.738721 
L 219.826608 240.037659 
L 224.436118 241.01744 
L 229.102745 241.673292 
L 233.803755 242.002019 
L 238.516245 242.002019 
L 243.217255 241.673292 
L 247.883882 241.01744 
L 252.493392 240.037659 
L 257.023328 238.738721 
L 261.451619 237.126954 
L 265.756692 235.210212 
L 269.917574 232.997833 
L 273.913991 230.500594 
L 277.726475 227.730662 
L 281.336451 224.701532 
L 284.726332 221.427962 
L 287.879603 217.9259 
L 290.780901 214.212408 
L 293.416092 210.305577 
L 295.772337 206.224442 
L 297.838156 201.988884 
L 299.603486 197.61954 
L 301.059725 193.137697 
L 302.199779 188.565188 
L 303.018094 183.924292 
L 303.510684 179.237619 
L 303.675147 174.528 
L 303.675147 174.528 
" style="fill:none;stroke:#b0b0b0;stroke-linecap:square;stroke-width:0.8;"/>
     </g>
     <g id="text_11">
      <!-- 30 -->
      <g transform="translate(298.535863 146.611384)scale(0.1 -0.1)">
       <use xlink:href="#DejaVuSans-51"/>
       <use x="63.623047" xlink:href="#DejaVuSans-48"/>
      </g>
     </g>
    </g>
    <g id="ytick_4">
     <g id="line2d_12">
      <path clip-path="url(#pb98951b132)" d="M 326.180196 174.528 
L 325.960911 168.248509 
L 325.304126 161.99961 
L 324.213039 155.811749 
L 322.692966 149.715071 
L 320.751314 143.73928 
L 318.397541 137.913488 
L 315.643115 132.266078 
L 312.501456 126.824564 
L 308.987868 121.615456 
L 305.119471 116.664133 
L 300.91511 111.994717 
L 296.395268 107.629957 
L 291.581967 103.591117 
L 286.498655 99.897875 
L 281.170098 96.568223 
L 275.622257 93.618384 
L 269.882159 91.062728 
L 263.97777 88.913706 
L 257.937856 87.181788 
L 251.791843 85.875413 
L 245.569673 85.000944 
L 239.30166 84.562642 
L 233.01834 84.562642 
L 226.750327 85.000944 
L 220.528157 85.875413 
L 214.382144 87.181788 
L 208.34223 88.913706 
L 202.437841 91.062728 
L 196.697743 93.618384 
L 191.149902 96.568223 
L 185.821345 99.897875 
L 180.738033 103.591117 
L 175.924732 107.629957 
L 171.40489 111.994717 
L 167.200529 116.664133 
L 163.332132 121.615456 
L 159.818544 126.824564 
L 156.676885 132.266078 
L 153.922459 137.913488 
L 151.568686 143.73928 
L 149.627034 149.715071 
L 148.106961 155.811749 
L 147.015874 161.99961 
L 146.359089 168.248509 
L 146.139804 174.528 
L 146.359089 180.807491 
L 147.015874 187.05639 
L 148.106961 193.244251 
L 149.627034 199.340929 
L 151.568686 205.31672 
L 153.922459 211.142512 
L 156.676885 216.789922 
L 159.818544 222.231436 
L 163.332132 227.440544 
L 167.200529 232.391867 
L 171.40489 237.061283 
L 175.924732 241.426043 
L 180.738033 245.464883 
L 185.821345 249.158125 
L 191.149902 252.487777 
L 196.697743 255.437616 
L 202.437841 257.993272 
L 208.34223 260.142294 
L 214.382144 261.874212 
L 220.528157 263.180587 
L 226.750327 264.055056 
L 233.01834 264.493358 
L 239.30166 264.493358 
L 245.569673 264.055056 
L 251.791843 263.180587 
L 257.937856 261.874212 
L 263.97777 260.142294 
L 269.882159 257.993272 
L 275.622257 255.437616 
L 281.170098 252.487777 
L 286.498655 249.158125 
L 291.581967 245.464883 
L 296.395268 241.426043 
L 300.91511 237.061283 
L 305.119471 232.391867 
L 308.987868 227.440544 
L 312.501456 222.231436 
L 315.643115 216.789922 
L 318.397541 211.142512 
L 320.751314 205.31672 
L 322.692966 199.340929 
L 324.213039 193.244251 
L 325.304126 187.05639 
L 325.960911 180.807491 
L 326.180196 174.528 
L 326.180196 174.528 
" style="fill:none;stroke:#b0b0b0;stroke-linecap:square;stroke-width:0.8;"/>
     </g>
     <g id="text_12">
      <!-- 40 -->
      <g transform="translate(319.327817 137.999075)scale(0.1 -0.1)">
       <use xlink:href="#DejaVuSans-52"/>
       <use x="63.623047" xlink:href="#DejaVuSans-48"/>
      </g>
     </g>
    </g>
    <g id="ytick_5">
     <g id="line2d_13">
      <path clip-path="url(#pb98951b132)" d="M 348.685245 174.528 
L 348.616698 170.600926 
L 348.411139 166.678636 
L 348.06882 162.765909 
L 347.590157 158.867513 
L 346.975734 154.988196 
L 346.226299 151.132686 
L 345.342764 147.305679 
L 344.326208 143.511839 
L 343.177868 139.755787 
L 341.899143 136.0421 
L 340.491591 132.375301 
L 338.956927 128.75986 
L 337.29702 125.200179 
L 335.513894 121.700597 
L 333.609721 118.265377 
L 331.58682 114.898705 
L 329.447656 111.604681 
L 327.194836 108.38732 
L 324.831103 105.250542 
L 322.359339 102.198167 
L 319.782554 99.233914 
L 317.103887 96.361397 
L 314.326603 93.584113 
L 311.454086 90.905446 
L 308.489833 88.328661 
L 305.437458 85.856897 
L 302.30068 83.493164 
L 299.083319 81.240344 
L 295.789295 79.10118 
L 292.422623 77.078279 
L 288.987403 75.174106 
L 285.487821 73.39098 
L 281.92814 71.731073 
L 278.312699 70.196409 
L 274.6459 68.788857 
L 270.932213 67.510132 
L 267.176161 66.361792 
L 263.382321 65.345236 
L 259.555314 64.461701 
L 255.699804 63.712266 
L 251.820487 63.097843 
L 247.922091 62.61918 
L 244.009364 62.276861 
L 240.087074 62.071302 
L 236.16 62.002755 
L 232.232926 62.071302 
L 228.310636 62.276861 
L 224.397909 62.61918 
L 220.499513 63.097843 
L 216.620196 63.712266 
L 212.764686 64.461701 
L 208.937679 65.345236 
L 205.143839 66.361792 
L 201.387787 67.510132 
L 197.6741 68.788857 
L 194.007301 70.196409 
L 190.39186 71.731073 
L 186.832179 73.39098 
L 183.332597 75.174106 
L 179.897377 77.078279 
L 176.530705 79.10118 
L 173.236681 81.240344 
L 170.01932 83.493164 
L 166.882542 85.856897 
L 163.830167 88.328661 
L 160.865914 90.905446 
L 157.993397 93.584113 
L 155.216113 96.361397 
L 152.537446 99.233914 
L 149.960661 102.198167 
L 147.488897 105.250542 
L 145.125164 108.38732 
L 142.872344 111.604681 
L 140.73318 114.898705 
L 138.710279 118.265377 
L 136.806106 121.700597 
L 135.02298 125.200179 
L 133.363073 128.75986 
L 131.828409 132.375301 
L 130.420857 136.0421 
L 129.142132 139.755787 
L 127.993792 143.511839 
L 126.977236 147.305679 
L 126.093701 151.132686 
L 125.344266 154.988196 
L 124.729843 158.867513 
L 124.25118 162.765909 
L 123.908861 166.678636 
L 123.703302 170.600926 
L 123.634755 174.528 
L 123.703302 178.455074 
L 123.908861 182.377364 
L 124.25118 186.290091 
L 124.729843 190.188487 
L 125.344266 194.067804 
L 126.093701 197.923314 
L 126.977236 201.750321 
L 127.993792 205.544161 
L 129.142132 209.300213 
L 130.420857 213.0139 
L 131.828409 216.680699 
L 133.363073 220.29614 
L 135.02298 223.855821 
L 136.806106 227.355403 
L 138.710279 230.790623 
L 140.73318 234.157295 
L 142.872344 237.451319 
L 145.125164 240.66868 
L 147.488897 243.805458 
L 149.960661 246.857833 
L 152.537446 249.822086 
L 155.216113 252.694603 
L 157.993397 255.471887 
L 160.865914 258.150554 
L 163.830167 260.727339 
L 166.882542 263.199103 
L 170.01932 265.562836 
L 173.236681 267.815656 
L 176.530705 269.95482 
L 179.897377 271.977721 
L 183.332597 273.881894 
L 186.832179 275.66502 
L 190.39186 277.324927 
L 194.007301 278.859591 
L 197.6741 280.267143 
L 201.387787 281.545868 
L 205.143839 282.694208 
L 208.937679 283.710764 
L 212.764686 284.594299 
L 216.620196 285.343734 
L 220.499513 285.958157 
L 224.397909 286.43682 
L 228.310636 286.779139 
L 232.232926 286.984698 
L 236.16 287.053245 
L 240.087074 286.984698 
L 244.009364 286.779139 
L 247.922091 286.43682 
L 251.820487 285.958157 
L 255.699804 285.343734 
L 259.555314 284.594299 
L 263.382321 283.710764 
L 267.176161 282.694208 
L 270.932213 281.545868 
L 274.6459 280.267143 
L 278.312699 278.859591 
L 281.92814 277.324927 
L 285.487821 275.66502 
L 288.987403 273.881894 
L 292.422623 271.977721 
L 295.789295 269.95482 
L 299.083319 267.815656 
L 302.30068 265.562836 
L 305.437458 263.199103 
L 308.489833 260.727339 
L 311.454086 258.150554 
L 314.326603 255.471887 
L 317.103887 252.694603 
L 319.782554 249.822086 
L 322.359339 246.857833 
L 324.831103 243.805458 
L 327.194836 240.66868 
L 329.447656 237.451319 
L 331.58682 234.157295 
L 333.609721 230.790623 
L 335.513894 227.355403 
L 337.29702 223.855821 
L 338.956927 220.29614 
L 340.491591 216.680699 
L 341.899143 213.0139 
L 343.177868 209.300213 
L 344.326208 205.544161 
L 345.342764 201.750321 
L 346.226299 197.923314 
L 346.975734 194.067804 
L 347.590157 190.188487 
L 348.06882 186.290091 
L 348.411139 182.377364 
L 348.616698 178.455074 
L 348.685245 174.528 
L 348.685245 174.528 
" style="fill:none;stroke:#b0b0b0;stroke-linecap:square;stroke-width:0.8;"/>
     </g>
     <g id="text_13">
      <!-- 50 -->
      <g transform="translate(340.119771 129.386765)scale(0.1 -0.1)">
       <use xlink:href="#DejaVuSans-53"/>
       <use x="63.623047" xlink:href="#DejaVuSans-48"/>
      </g>
     </g>
    </g>
   </g>
   <g id="line2d_14">
    <path clip-path="url(#pb98951b132)" d="M 252.627371 174.528 
L 254.286532 173.895008 
L 254.50056 173.566812 
L 253.775667 173.296193 
L 252.844027 173.068337 
L 252.432012 172.817743 
L 252.856325 172.477949 
L 255.626117 171.44487 
L 255.573128 171.104942 
L 251.822768 170.911965 
L 251.030429 170.54348 
L 250.487507 170.147642 
L 250.343346 169.919551 
L 250.375244 169.633299 
L 251.020068 168.524143 
L 250.508192 168.437554 
L 247.952302 168.519522 
L 247.43833 168.276319 
L 247.358511 168.062536 
L 247.494001 167.44573 
L 248.013886 166.532453 
L 249.005031 165.195539 
L 250.761807 163.119818 
L 255.984785 157.294577 
L 256.726509 156.009832 
L 256.047361 155.982736 
L 255.208929 156.132663 
L 254.040515 156.012185 
L 253.248479 156.20285 
L 252.112995 156.810404 
L 249.483266 158.64995 
L 245.724294 161.363878 
L 244.167706 162.197215 
L 242.760459 162.620458 
L 242.25016 162.575388 
L 241.917359 162.181303 
L 241.749946 161.972775 
L 241.486288 161.980051 
L 239.884369 163.065571 
L 239.473075 162.973935 
L 239.127764 162.624948 
L 238.659165 161.67091 
L 238.186235 160.110588 
L 237.645065 157.553635 
L 237.36732 157.262522 
L 237.029283 157.941101 
L 236.416616 159.826456 
L 235.916716 160.590288 
L 235.675548 160.655117 
L 235.172822 160.410696 
L 234.312772 159.483535 
L 232.854597 157.523175 
L 231.849538 155.857337 
L 231.12681 154.340977 
L 229.94147 151.32013 
L 227.676327 144.941917 
L 226.479973 142.866058 
L 227.774343 148.719601 
L 228.125776 151.194918 
L 227.800367 151.560096 
L 227.127958 150.998727 
L 225.026285 148.298611 
L 219.491885 140.353299 
L 208.368714 124.391192 
L 202.449964 116.140506 
L 194.990041 106.009681 
L 185.907891 94.107814 
L 175.87304 81.694222 
L 167.135445 72.194889 
L 163.148702 70.25706 
L 165.737256 77.599409 
L 173.109209 90.856775 
L 181.9579 105.152475 
L 190.077774 117.62119 
L 201.875626 135.088339 
L 212.914502 151.282502 
L 215.325754 155.099751 
L 216.675363 157.590263 
L 217.61615 159.511487 
L 219.363625 161.871024 
L 222.028765 165.351068 
L 223.011503 166.936712 
L 223.276068 167.677492 
L 223.196577 168.205316 
L 222.744155 168.554881 
L 221.349467 169.137407 
L 221.492311 169.47751 
L 223.565584 171.387859 
L 223.702812 171.880143 
L 223.566705 172.307462 
L 223.197672 172.706264 
L 222.184882 173.305336 
L 220.047289 174.246752 
L 218.323585 174.839336 
L 216.840141 175.202664 
L 213.844937 175.697483 
L 190.41415 178.530243 
L 199.93385 178.335522 
L 211.167976 177.596635 
L 214.774697 177.533508 
L 215.554234 177.791633 
L 214.934341 178.270656 
L 213.152222 179.000259 
L 210.38802 180.006003 
L 208.136713 180.997686 
L 207.851581 181.586082 
L 208.525745 181.932576 
L 210.043328 182.016835 
L 210.76425 182.29226 
L 210.37057 182.907494 
L 211.888626 182.885304 
L 224.275886 180.069653 
L 225.175728 180.124766 
L 225.385599 180.256851 
L 225.434705 180.473128 
L 225.290327 180.803609 
L 224.870642 181.311331 
L 223.977224 182.140643 
L 222.067576 183.679727 
L 217.549563 187.080898 
L 211.708994 191.648779 
L 223.635674 184.313076 
L 224.464224 183.999053 
L 224.837802 184.028453 
L 224.883664 184.330369 
L 224.155667 185.722222 
L 223.795816 186.467954 
L 223.979613 186.708387 
L 225.231483 186.2474 
L 225.567184 186.292514 
L 225.885116 187.216425 
L 227.095577 187.004108 
L 227.297092 187.185544 
L 227.351129 187.587689 
L 227.038388 189.125631 
L 226.505514 191.250061 
L 226.502006 191.951483 
L 226.974277 191.803833 
L 229.056289 189.761958 
L 229.36632 189.786856 
L 229.536272 190.132526 
L 229.902395 191.72063 
L 230.158636 191.957226 
L 230.501527 191.94299 
L 231.623015 191.46026 
L 232.231044 191.546179 
L 232.462585 191.922969 
L 232.560158 193.04758 
L 232.219357 199.40824 
L 232.362759 201.546772 
L 233.200947 198.627555 
L 234.629114 192.026106 
L 235.030628 190.678773 
L 235.630862 189.680538 
L 236.413705 189.062742 
L 236.665646 189.007815 
L 236.922893 189.084874 
L 237.481605 189.634011 
L 238.456597 190.869137 
L 238.742074 190.830571 
L 239.433682 189.929461 
L 239.694204 189.836318 
L 240.29455 189.95835 
L 241.365583 190.549136 
L 242.276623 191.333285 
L 242.878307 192.029788 
L 243.674006 193.125819 
L 244.814036 194.915632 
L 249.178599 202.446476 
L 251.660098 206.30791 
L 252.036818 205.688009 
L 249.277779 198.1931 
L 245.054315 186.769974 
L 244.571278 184.915063 
L 244.572663 184.205661 
L 244.837904 183.833913 
L 245.091654 183.776998 
L 245.934258 183.966892 
L 247.115806 184.392652 
L 247.4741 184.363197 
L 247.526056 184.065253 
L 247.36592 182.972266 
L 247.503934 182.471108 
L 247.687144 182.303157 
L 248.010956 182.224101 
L 248.565577 182.279865 
L 249.517223 182.553829 
L 251.181433 183.200628 
L 258.356942 186.330323 
L 261.30083 187.337893 
L 259.130858 185.731636 
L 251.131661 180.883093 
L 250.576691 180.352721 
L 250.559435 180.055425 
L 251.717455 179.582924 
L 251.561631 179.236751 
L 251.119198 178.536305 
L 251.178016 178.272412 
L 251.426601 178.052572 
L 253.93328 176.710284 
L 254.245915 176.428906 
L 254.186764 176.105138 
L 252.321212 174.810095 
L 252.627371 174.528 
L 252.627371 174.528 
" style="fill:none;stroke:#1f77b4;stroke-linecap:square;stroke-opacity:0.55;stroke-width:3;"/>
   </g>
   <g id="patch_3">
    <path d="M 369.216 174.528 
C 369.216 157.055246 365.774248 139.752393 359.087715 123.609673 
C 352.401182 107.466954 342.599903 92.798303 330.2448 80.4432 
C 317.889697 68.088097 303.221046 58.286818 287.078327 51.600285 
C 270.935607 44.913752 253.632754 41.472 236.16 41.472 
C 218.687246 41.472 201.384393 44.913752 185.241673 51.600285 
C 169.098954 58.286818 154.430303 68.088097 142.0752 80.4432 
C 129.720097 92.798303 119.918818 107.466954 113.232285 123.609673 
C 106.545752 139.752393 103.104 157.055246 103.104 174.528 
C 103.104 192.000754 106.545752 209.303607 113.232285 225.446327 
C 119.918818 241.589046 129.720097 256.257697 142.0752 268.6128 
C 154.430303 280.967903 169.098954 290.769182 185.241673 297.455715 
C 201.384393 304.142248 218.687246 307.584 236.16 307.584 
C 253.632754 307.584 270.935607 304.142248 287.078327 297.455715 
C 303.221046 290.769182 317.889697 280.967903 330.2448 268.6128 
C 342.599903 256.257697 352.401182 241.589046 359.087715 225.446327 
C 365.774248 209.303607 369.216 192.000754 369.216 174.528 
" style="fill:none;stroke:#000000;stroke-linecap:square;stroke-linejoin:miter;stroke-width:0.8;"/>
   </g>
  </g>
 </g>
 <defs>
  <clipPath id="pb98951b132">
   <path d="M 369.216 174.528 
C 369.216 157.055246 365.774248 139.752393 359.087715 123.609673 
C 352.401182 107.466954 342.599903 92.798303 330.2448 80.4432 
C 317.889697 68.088097 303.221046 58.286818 287.078327 51.600285 
C 270.935607 44.913752 253.632754 41.472 236.16 41.472 
C 218.687246 41.472 201.384393 44.913752 185.241673 51.600285 
C 169.098954 58.286818 154.430303 68.088097 142.0752 80.4432 
C 129.720097 92.798303 119.918818 107.466954 113.232285 123.609673 
C 106.545752 139.752393 103.104 157.055246 103.104 174.528 
C 103.104 192.000754 106.545752 209.303607 113.232285 225.446327 
C 119.918818 241.589046 129.720097 256.257697 142.0752 268.6128 
C 154.430303 280.967903 169.098954 290.769182 185.241673 297.455715 
C 201.384393 304.142248 218.687246 307.584 236.16 307.584 
C 253.632754 307.584 270.935607 304.142248 287.078327 297.455715 
C 303.221046 290.769182 317.889697 280.967903 330.2448 268.6128 
C 342.599903 256.257697 352.401182 241.589046 359.087715 225.446327 
C 365.774248 209.303607 369.216 192.000754 369.216 174.528 
M 236.16 174.528 
C 236.16 174.528 236.16 174.528 236.16 174.528 
C 236.16 174.528 236.16 174.528 236.16 174.528 
C 236.16 174.528 236.16 174.528 236.16 174.528 
C 236.16 174.528 236.16 174.528 236.16 174.528 
C 236.16 174.528 236.16 174.528 236.16 174.528 
C 236.16 174.528 236.16 174.528 236.16 174.528 
C 236.16 174.528 236.16 174.528 236.16 174.528 
C 236.16 174.528 236.16 174.528 236.16 174.528 
C 236.16 174.528 236.16 174.528 236.16 174.528 
C 236.16 174.528 236.16 174.528 236.16 174.528 
C 236.16 174.528 236.16 174.528 236.16 174.528 
C 236.16 174.528 236.16 174.528 236.16 174.528 
C 236.16 174.528 236.16 174.528 236.16 174.528 
C 236.16 174.528 236.16 174.528 236.16 174.528 
C 236.16 174.528 236.16 174.528 236.16 174.528 
C 236.16 174.528 236.16 174.528 236.16 174.528 
M 369.216 174.528 
z
"/>
  </clipPath>
 </defs>
</svg>
