<?xml version="1.0" encoding="utf-8" standalone="no"?>
<!DOCTYPE svg PUBLIC "-//W3C//DTD SVG 1.1//EN"
  "http://www.w3.org/Graphics/SVG/1.1/DTD/svg11.dtd">
<!-- Created with matplotlib (https://matplotlib.org/) -->
<svg height="345.6pt" version="1.1" viewBox="0 0 460.8 345.6" width="460.8pt" xmlns="http://www.w3.org/2000/svg" xmlns:xlink="http://www.w3.org/1999/xlink">
 <defs>
  <style type="text/css">
*{stroke-linecap:butt;stroke-linejoin:round;}
  </style>
 </defs>
 <g id="figure_1">
  <g id="patch_1">
   <path d="M 0 345.6 
L 460.8 345.6 
L 460.8 0 
L 0 0 
z
" style="fill:#ffffff;"/>
  </g>
  <g id="axes_1">
   <g id="patch_2">
    <path d="M 369.216 174.528 
C 369.216 157.055246 365.774248 139.752393 359.087715 123.609673 
C 352.401182 107.466954 342.599903 92.798303 330.2448 80.4432 
C 317.889697 68.088097 303.221046 58.286818 287.078327 51.600285 
C 270.935607 44.913752 253.632754 41.472 236.16 41.472 
C 218.687246 41.472 201.384393 44.913752 185.241673 51.600285 
C 169.098954 58.286818 154.430303 68.088097 142.0752 80.4432 
C 129.720097 92.798303 119.918818 107.466954 113.232285 123.609673 
C 106.545752 139.752393 103.104 157.055246 103.104 174.528 
C 103.104 192.000754 106.545752 209.303607 113.232285 225.446327 
C 119.918818 241.589046 129.720097 256.257697 142.0752 268.6128 
C 154.430303 280.967903 169.098954 290.769182 185.241673 297.455715 
C 201.384393 304.142248 218.687246 307.584 236.16 307.584 
C 253.632754 307.584 270.935607 304.142248 287.078327 297.455715 
C 303.221046 290.769182 317.889697 280.967903 330.2448 268.6128 
C 342.599903 256.257697 352.401182 241.589046 359.087715 225.446327 
C 365.774248 209.303607 369.216 192.000754 369.216 174.528 
M 236.16 174.528 
C 236.16 174.528 236.16 174.528 236.16 174.528 
C 236.16 174.528 236.16 174.528 236.16 174.528 
C 236.16 174.528 236.16 174.528 236.16 174.528 
C 236.16 174.528 236.16 174.528 236.16 174.528 
C 236.16 174.528 236.16 174.528 236.16 174.528 
C 236.16 174.528 236.16 174.528 236.16 174.528 
C 236.16 174.528 236.16 174.528 236.16 174.528 
C 236.16 174.528 236.16 174.528 236.16 174.528 
C 236.16 174.528 236.16 174.528 236.16 174.528 
C 236.16 174.528 236.16 174.528 236.16 174.528 
C 236.16 174.528 236.16 174.528 236.16 174.528 
C 236.16 174.528 236.16 174.528 236.16 174.528 
C 236.16 174.528 236.16 174.528 236.16 174.528 
C 236.16 174.528 236.16 174.528 236.16 174.528 
C 236.16 174.528 236.16 174.528 236.16 174.528 
C 236.16 174.528 236.16 174.528 236.16 174.528 
M 369.216 174.528 
z
" style="fill:#ffffff;"/>
   </g>
   <g id="matplotlib.axis_1">
    <g id="xtick_1">
     <g id="line2d_1">
      <path clip-path="url(#p828b7bc152)" d="M 236.16 174.528 
L 369.216 174.528 
" style="fill:none;stroke:#b0b0b0;stroke-linecap:square;stroke-width:0.8;"/>
     </g>
     <g id="text_1">
      <!-- 0° -->
      <defs>
       <path d="M 31.78125 66.40625 
Q 24.171875 66.40625 20.328125 58.90625 
Q 16.5 51.421875 16.5 36.375 
Q 16.5 21.390625 20.328125 13.890625 
Q 24.171875 6.390625 31.78125 6.390625 
Q 39.453125 6.390625 43.28125 13.890625 
Q 47.125 21.390625 47.125 36.375 
Q 47.125 51.421875 43.28125 58.90625 
Q 39.453125 66.40625 31.78125 66.40625 
z
M 31.78125 74.21875 
Q 44.046875 74.21875 50.515625 64.515625 
Q 56.984375 54.828125 56.984375 36.375 
Q 56.984375 17.96875 50.515625 8.265625 
Q 44.046875 -1.421875 31.78125 -1.421875 
Q 19.53125 -1.421875 13.0625 8.265625 
Q 6.59375 17.96875 6.59375 36.375 
Q 6.59375 54.828125 13.0625 64.515625 
Q 19.53125 74.21875 31.78125 74.21875 
z
" id="DejaVuSans-48"/>
       <path d="M 25 67.921875 
Q 21.09375 67.921875 18.40625 65.203125 
Q 15.71875 62.5 15.71875 58.59375 
Q 15.71875 54.734375 18.40625 52.078125 
Q 21.09375 49.421875 25 49.421875 
Q 28.90625 49.421875 31.59375 52.078125 
Q 34.28125 54.734375 34.28125 58.59375 
Q 34.28125 62.453125 31.5625 65.1875 
Q 28.859375 67.921875 25 67.921875 
z
M 25 74.21875 
Q 28.125 74.21875 31 73.015625 
Q 33.890625 71.828125 35.984375 69.578125 
Q 38.234375 67.390625 39.359375 64.59375 
Q 40.484375 61.8125 40.484375 58.59375 
Q 40.484375 52.15625 35.96875 47.6875 
Q 31.453125 43.21875 24.90625 43.21875 
Q 18.3125 43.21875 13.90625 47.609375 
Q 9.515625 52 9.515625 58.59375 
Q 9.515625 65.140625 14 69.671875 
Q 18.5 74.21875 25 74.21875 
z
" id="DejaVuSans-176"/>
      </defs>
      <g transform="translate(377.53475 177.287375)scale(0.1 -0.1)">
       <use xlink:href="#DejaVuSans-48"/>
       <use x="63.623047" xlink:href="#DejaVuSans-176"/>
      </g>
     </g>
    </g>
    <g id="xtick_2">
     <g id="line2d_2">
      <path clip-path="url(#p828b7bc152)" d="M 236.16 174.528 
L 330.2448 80.4432 
" style="fill:none;stroke:#b0b0b0;stroke-linecap:square;stroke-width:0.8;"/>
     </g>
     <g id="text_2">
      <!-- 45° -->
      <defs>
       <path d="M 37.796875 64.3125 
L 12.890625 25.390625 
L 37.796875 25.390625 
z
M 35.203125 72.90625 
L 47.609375 72.90625 
L 47.609375 25.390625 
L 58.015625 25.390625 
L 58.015625 17.1875 
L 47.609375 17.1875 
L 47.609375 0 
L 37.796875 0 
L 37.796875 17.1875 
L 4.890625 17.1875 
L 4.890625 26.703125 
z
" id="DejaVuSans-52"/>
       <path d="M 10.796875 72.90625 
L 49.515625 72.90625 
L 49.515625 64.59375 
L 19.828125 64.59375 
L 19.828125 46.734375 
Q 21.96875 47.46875 24.109375 47.828125 
Q 26.265625 48.1875 28.421875 48.1875 
Q 40.625 48.1875 47.75 41.5 
Q 54.890625 34.8125 54.890625 23.390625 
Q 54.890625 11.625 47.5625 5.09375 
Q 40.234375 -1.421875 26.90625 -1.421875 
Q 22.3125 -1.421875 17.546875 -0.640625 
Q 12.796875 0.140625 7.71875 1.703125 
L 7.71875 11.625 
Q 12.109375 9.234375 16.796875 8.0625 
Q 21.484375 6.890625 26.703125 6.890625 
Q 35.15625 6.890625 40.078125 11.328125 
Q 45.015625 15.765625 45.015625 23.390625 
Q 45.015625 31 40.078125 35.4375 
Q 35.15625 39.890625 26.703125 39.890625 
Q 22.75 39.890625 18.8125 39.015625 
Q 14.890625 38.140625 10.796875 36.28125 
z
" id="DejaVuSans-53"/>
      </defs>
      <g transform="translate(331.281795 73.30308)scale(0.1 -0.1)">
       <use xlink:href="#DejaVuSans-52"/>
       <use x="63.623047" xlink:href="#DejaVuSans-53"/>
       <use x="127.246094" xlink:href="#DejaVuSans-176"/>
      </g>
     </g>
    </g>
    <g id="xtick_3">
     <g id="line2d_3">
      <path clip-path="url(#p828b7bc152)" d="M 236.16 174.528 
L 236.16 41.472 
" style="fill:none;stroke:#b0b0b0;stroke-linecap:square;stroke-width:0.8;"/>
     </g>
     <g id="text_3">
      <!-- 90° -->
      <defs>
       <path d="M 10.984375 1.515625 
L 10.984375 10.5 
Q 14.703125 8.734375 18.5 7.8125 
Q 22.3125 6.890625 25.984375 6.890625 
Q 35.75 6.890625 40.890625 13.453125 
Q 46.046875 20.015625 46.78125 33.40625 
Q 43.953125 29.203125 39.59375 26.953125 
Q 35.25 24.703125 29.984375 24.703125 
Q 19.046875 24.703125 12.671875 31.3125 
Q 6.296875 37.9375 6.296875 49.421875 
Q 6.296875 60.640625 12.9375 67.421875 
Q 19.578125 74.21875 30.609375 74.21875 
Q 43.265625 74.21875 49.921875 64.515625 
Q 56.59375 54.828125 56.59375 36.375 
Q 56.59375 19.140625 48.40625 8.859375 
Q 40.234375 -1.421875 26.421875 -1.421875 
Q 22.703125 -1.421875 18.890625 -0.6875 
Q 15.09375 0.046875 10.984375 1.515625 
z
M 30.609375 32.421875 
Q 37.25 32.421875 41.125 36.953125 
Q 45.015625 41.5 45.015625 49.421875 
Q 45.015625 57.28125 41.125 61.84375 
Q 37.25 66.40625 30.609375 66.40625 
Q 23.96875 66.40625 20.09375 61.84375 
Q 16.21875 57.28125 16.21875 49.421875 
Q 16.21875 41.5 20.09375 36.953125 
Q 23.96875 32.421875 30.609375 32.421875 
z
" id="DejaVuSans-57"/>
      </defs>
      <g transform="translate(227.2975 30.231375)scale(0.1 -0.1)">
       <use xlink:href="#DejaVuSans-57"/>
       <use x="63.623047" xlink:href="#DejaVuSans-48"/>
       <use x="127.246094" xlink:href="#DejaVuSans-176"/>
      </g>
     </g>
    </g>
    <g id="xtick_4">
     <g id="line2d_4">
      <path clip-path="url(#p828b7bc152)" d="M 236.16 174.528 
L 142.0752 80.4432 
" style="fill:none;stroke:#b0b0b0;stroke-linecap:square;stroke-width:0.8;"/>
     </g>
     <g id="text_4">
      <!-- 135° -->
      <defs>
       <path d="M 12.40625 8.296875 
L 28.515625 8.296875 
L 28.515625 63.921875 
L 10.984375 60.40625 
L 10.984375 69.390625 
L 28.421875 72.90625 
L 38.28125 72.90625 
L 38.28125 8.296875 
L 54.390625 8.296875 
L 54.390625 0 
L 12.40625 0 
z
" id="DejaVuSans-49"/>
       <path d="M 40.578125 39.3125 
Q 47.65625 37.796875 51.625 33 
Q 55.609375 28.21875 55.609375 21.1875 
Q 55.609375 10.40625 48.1875 4.484375 
Q 40.765625 -1.421875 27.09375 -1.421875 
Q 22.515625 -1.421875 17.65625 -0.515625 
Q 12.796875 0.390625 7.625 2.203125 
L 7.625 11.71875 
Q 11.71875 9.328125 16.59375 8.109375 
Q 21.484375 6.890625 26.8125 6.890625 
Q 36.078125 6.890625 40.9375 10.546875 
Q 45.796875 14.203125 45.796875 21.1875 
Q 45.796875 27.640625 41.28125 31.265625 
Q 36.765625 34.90625 28.71875 34.90625 
L 20.21875 34.90625 
L 20.21875 43.015625 
L 29.109375 43.015625 
Q 36.375 43.015625 40.234375 45.921875 
Q 44.09375 48.828125 44.09375 54.296875 
Q 44.09375 59.90625 40.109375 62.90625 
Q 36.140625 65.921875 28.71875 65.921875 
Q 24.65625 65.921875 20.015625 65.03125 
Q 15.375 64.15625 9.8125 62.3125 
L 9.8125 71.09375 
Q 15.4375 72.65625 20.34375 73.4375 
Q 25.25 74.21875 29.59375 74.21875 
Q 40.828125 74.21875 47.359375 69.109375 
Q 53.90625 64.015625 53.90625 55.328125 
Q 53.90625 49.265625 50.4375 45.09375 
Q 46.96875 40.921875 40.578125 39.3125 
z
" id="DejaVuSans-51"/>
      </defs>
      <g transform="translate(120.131955 73.30308)scale(0.1 -0.1)">
       <use xlink:href="#DejaVuSans-49"/>
       <use x="63.623047" xlink:href="#DejaVuSans-51"/>
       <use x="127.246094" xlink:href="#DejaVuSans-53"/>
       <use x="190.869141" xlink:href="#DejaVuSans-176"/>
      </g>
     </g>
    </g>
    <g id="xtick_5">
     <g id="line2d_5">
      <path clip-path="url(#p828b7bc152)" d="M 236.16 174.528 
L 103.104 174.528 
" style="fill:none;stroke:#b0b0b0;stroke-linecap:square;stroke-width:0.8;"/>
     </g>
     <g id="text_5">
      <!-- 180° -->
      <defs>
       <path d="M 31.78125 34.625 
Q 24.75 34.625 20.71875 30.859375 
Q 16.703125 27.09375 16.703125 20.515625 
Q 16.703125 13.921875 20.71875 10.15625 
Q 24.75 6.390625 31.78125 6.390625 
Q 38.8125 6.390625 42.859375 10.171875 
Q 46.921875 13.96875 46.921875 20.515625 
Q 46.921875 27.09375 42.890625 30.859375 
Q 38.875 34.625 31.78125 34.625 
z
M 21.921875 38.8125 
Q 15.578125 40.375 12.03125 44.71875 
Q 8.5 49.078125 8.5 55.328125 
Q 8.5 64.0625 14.71875 69.140625 
Q 20.953125 74.21875 31.78125 74.21875 
Q 42.671875 74.21875 48.875 69.140625 
Q 55.078125 64.0625 55.078125 55.328125 
Q 55.078125 49.078125 51.53125 44.71875 
Q 48 40.375 41.703125 38.8125 
Q 48.828125 37.15625 52.796875 32.3125 
Q 56.78125 27.484375 56.78125 20.515625 
Q 56.78125 9.90625 50.3125 4.234375 
Q 43.84375 -1.421875 31.78125 -1.421875 
Q 19.734375 -1.421875 13.25 4.234375 
Q 6.78125 9.90625 6.78125 20.515625 
Q 6.78125 27.484375 10.78125 32.3125 
Q 14.796875 37.15625 21.921875 38.8125 
z
M 18.3125 54.390625 
Q 18.3125 48.734375 21.84375 45.5625 
Q 25.390625 42.390625 31.78125 42.390625 
Q 38.140625 42.390625 41.71875 45.5625 
Q 45.3125 48.734375 45.3125 54.390625 
Q 45.3125 60.0625 41.71875 63.234375 
Q 38.140625 66.40625 31.78125 66.40625 
Q 25.390625 66.40625 21.84375 63.234375 
Q 18.3125 60.0625 18.3125 54.390625 
z
" id="DejaVuSans-56"/>
      </defs>
      <g transform="translate(77.06025 177.287375)scale(0.1 -0.1)">
       <use xlink:href="#DejaVuSans-49"/>
       <use x="63.623047" xlink:href="#DejaVuSans-56"/>
       <use x="127.246094" xlink:href="#DejaVuSans-48"/>
       <use x="190.869141" xlink:href="#DejaVuSans-176"/>
      </g>
     </g>
    </g>
    <g id="xtick_6">
     <g id="line2d_6">
      <path clip-path="url(#p828b7bc152)" d="M 236.16 174.528 
L 142.0752 268.6128 
" style="fill:none;stroke:#b0b0b0;stroke-linecap:square;stroke-width:0.8;"/>
     </g>
     <g id="text_6">
      <!-- 225° -->
      <defs>
       <path d="M 19.1875 8.296875 
L 53.609375 8.296875 
L 53.609375 0 
L 7.328125 0 
L 7.328125 8.296875 
Q 12.9375 14.109375 22.625 23.890625 
Q 32.328125 33.6875 34.8125 36.53125 
Q 39.546875 41.84375 41.421875 45.53125 
Q 43.3125 49.21875 43.3125 52.78125 
Q 43.3125 58.59375 39.234375 62.25 
Q 35.15625 65.921875 28.609375 65.921875 
Q 23.96875 65.921875 18.8125 64.3125 
Q 13.671875 62.703125 7.8125 59.421875 
L 7.8125 69.390625 
Q 13.765625 71.78125 18.9375 73 
Q 24.125 74.21875 28.421875 74.21875 
Q 39.75 74.21875 46.484375 68.546875 
Q 53.21875 62.890625 53.21875 53.421875 
Q 53.21875 48.921875 51.53125 44.890625 
Q 49.859375 40.875 45.40625 35.40625 
Q 44.1875 33.984375 37.640625 27.21875 
Q 31.109375 20.453125 19.1875 8.296875 
z
" id="DejaVuSans-50"/>
      </defs>
      <g transform="translate(120.131955 281.27167)scale(0.1 -0.1)">
       <use xlink:href="#DejaVuSans-50"/>
       <use x="63.623047" xlink:href="#DejaVuSans-50"/>
       <use x="127.246094" xlink:href="#DejaVuSans-53"/>
       <use x="190.869141" xlink:href="#DejaVuSans-176"/>
      </g>
     </g>
    </g>
    <g id="xtick_7">
     <g id="line2d_7">
      <path clip-path="url(#p828b7bc152)" d="M 236.16 174.528 
L 236.16 307.584 
" style="fill:none;stroke:#b0b0b0;stroke-linecap:square;stroke-width:0.8;"/>
     </g>
     <g id="text_7">
      <!-- 270° -->
      <defs>
       <path d="M 8.203125 72.90625 
L 55.078125 72.90625 
L 55.078125 68.703125 
L 28.609375 0 
L 18.3125 0 
L 43.21875 64.59375 
L 8.203125 64.59375 
z
" id="DejaVuSans-55"/>
      </defs>
      <g transform="translate(224.11625 324.343375)scale(0.1 -0.1)">
       <use xlink:href="#DejaVuSans-50"/>
       <use x="63.623047" xlink:href="#DejaVuSans-55"/>
       <use x="127.246094" xlink:href="#DejaVuSans-48"/>
       <use x="190.869141" xlink:href="#DejaVuSans-176"/>
      </g>
     </g>
    </g>
    <g id="xtick_8">
     <g id="line2d_8">
      <path clip-path="url(#p828b7bc152)" d="M 236.16 174.528 
L 330.2448 268.6128 
" style="fill:none;stroke:#b0b0b0;stroke-linecap:square;stroke-width:0.8;"/>
     </g>
     <g id="text_8">
      <!-- 315° -->
      <g transform="translate(328.100545 281.27167)scale(0.1 -0.1)">
       <use xlink:href="#DejaVuSans-51"/>
       <use x="63.623047" xlink:href="#DejaVuSans-49"/>
       <use x="127.246094" xlink:href="#DejaVuSans-53"/>
       <use x="190.869141" xlink:href="#DejaVuSans-176"/>
      </g>
     </g>
    </g>
   </g>
   <g id="matplotlib.axis_2">
    <g id="ytick_1">
     <g id="line2d_9">
      <path clip-path="url(#p828b7bc152)" d="M 255.202226 174.528 
L 255.09791 172.537545 
L 254.786107 170.568899 
L 254.270233 168.643629 
L 253.555939 166.782829 
L 252.651051 165.006887 
L 251.565484 163.335261 
L 250.311132 161.786264 
L 248.901736 160.376868 
L 247.352739 159.122516 
L 245.681113 158.036949 
L 243.905171 157.132061 
L 242.044371 156.417767 
L 240.119101 155.901893 
L 238.150455 155.59009 
L 236.16 155.485774 
L 234.169545 155.59009 
L 232.200899 155.901893 
L 230.275629 156.417767 
L 228.414829 157.132061 
L 226.638887 158.036949 
L 224.967261 159.122516 
L 223.418264 160.376868 
L 222.008868 161.786264 
L 220.754516 163.335261 
L 219.668949 165.006887 
L 218.764061 166.782829 
L 218.049767 168.643629 
L 217.533893 170.568899 
L 217.22209 172.537545 
L 217.117774 174.528 
L 217.22209 176.518455 
L 217.533893 178.487101 
L 218.049767 180.412371 
L 218.764061 182.273171 
L 219.668949 184.049113 
L 220.754516 185.720739 
L 222.008868 187.269736 
L 223.418264 188.679132 
L 224.967261 189.933484 
L 226.638887 191.019051 
L 228.414829 191.923939 
L 230.275629 192.638233 
L 232.200899 193.154107 
L 234.169545 193.46591 
L 236.16 193.570226 
L 238.150455 193.46591 
L 240.119101 193.154107 
L 242.044371 192.638233 
L 243.905171 191.923939 
L 245.681113 191.019051 
L 247.352739 189.933484 
L 248.901736 188.679132 
L 250.311132 187.269736 
L 251.565484 185.720739 
L 252.651051 184.049113 
L 253.555939 182.273171 
L 254.270233 180.412371 
L 254.786107 178.487101 
L 255.09791 176.518455 
L 255.202226 174.528 
L 255.202226 174.528 
" style="fill:none;stroke:#b0b0b0;stroke-linecap:square;stroke-width:0.8;"/>
     </g>
     <g id="text_9">
      <!-- 2 -->
      <g transform="translate(253.752723 165.161168)scale(0.1 -0.1)">
       <use xlink:href="#DejaVuSans-50"/>
      </g>
     </g>
    </g>
    <g id="ytick_2">
     <g id="line2d_10">
      <path clip-path="url(#p828b7bc152)" d="M 274.244452 174.528 
L 274.15168 171.871363 
L 273.873816 169.227669 
L 273.412215 166.609797 
L 272.769125 164.030502 
L 271.947678 161.50235 
L 270.951878 159.037658 
L 269.786575 156.648433 
L 268.457447 154.346315 
L 266.970969 152.142521 
L 265.334382 150.047786 
L 263.555662 148.072317 
L 261.643472 146.225737 
L 259.60713 144.517043 
L 257.456555 142.954559 
L 255.202226 141.545897 
L 252.855125 140.297922 
L 250.426687 139.216711 
L 247.928743 138.307534 
L 245.373463 137.574819 
L 242.773296 137.022137 
L 240.140909 136.652179 
L 237.489128 136.466748 
L 234.830872 136.466748 
L 232.179091 136.652179 
L 229.546704 137.022137 
L 226.946537 137.574819 
L 224.391257 138.307534 
L 221.893313 139.216711 
L 219.464875 140.297922 
L 217.117774 141.545897 
L 214.863445 142.954559 
L 212.71287 144.517043 
L 210.676528 146.225737 
L 208.764338 148.072317 
L 206.985618 150.047786 
L 205.349031 152.142521 
L 203.862553 154.346315 
L 202.533425 156.648433 
L 201.368122 159.037658 
L 200.372322 161.50235 
L 199.550875 164.030502 
L 198.907785 166.609797 
L 198.446184 169.227669 
L 198.16832 171.871363 
L 198.075548 174.528 
L 198.16832 177.184637 
L 198.446184 179.828331 
L 198.907785 182.446203 
L 199.550875 185.025498 
L 200.372322 187.55365 
L 201.368122 190.018342 
L 202.533425 192.407567 
L 203.862553 194.709685 
L 205.349031 196.913479 
L 206.985618 199.008214 
L 208.764338 200.983683 
L 210.676528 202.830263 
L 212.71287 204.538957 
L 214.863445 206.101441 
L 217.117774 207.510103 
L 219.464875 208.758078 
L 221.893313 209.839289 
L 224.391257 210.748466 
L 226.946537 211.481181 
L 229.546704 212.033863 
L 232.179091 212.403821 
L 234.830872 212.589252 
L 237.489128 212.589252 
L 240.140909 212.403821 
L 242.773296 212.033863 
L 245.373463 211.481181 
L 247.928743 210.748466 
L 250.426687 209.839289 
L 252.855125 208.758078 
L 255.202226 207.510103 
L 257.456555 206.101441 
L 259.60713 204.538957 
L 261.643472 202.830263 
L 263.555662 200.983683 
L 265.334382 199.008214 
L 266.970969 196.913479 
L 268.457447 194.709685 
L 269.786575 192.407567 
L 270.951878 190.018342 
L 271.947678 187.55365 
L 272.769125 185.025498 
L 273.412215 182.446203 
L 273.873816 179.828331 
L 274.15168 177.184637 
L 274.244452 174.528 
L 274.244452 174.528 
" style="fill:none;stroke:#b0b0b0;stroke-linecap:square;stroke-width:0.8;"/>
     </g>
     <g id="text_10">
      <!-- 4 -->
      <g transform="translate(271.345445 157.874024)scale(0.1 -0.1)">
       <use xlink:href="#DejaVuSans-52"/>
      </g>
     </g>
    </g>
    <g id="ytick_3">
     <g id="line2d_11">
      <path clip-path="url(#p828b7bc152)" d="M 293.286677 174.528 
L 293.14752 170.543044 
L 292.730724 166.577503 
L 292.038322 162.650696 
L 291.073687 158.781754 
L 289.841517 154.989526 
L 288.347817 151.292487 
L 286.599862 147.70865 
L 284.60617 144.255473 
L 282.376453 140.949782 
L 279.921574 137.80768 
L 277.253493 134.844475 
L 274.385208 132.074605 
L 271.330694 129.511564 
L 268.104833 127.167838 
L 264.723339 125.054846 
L 261.202687 123.182883 
L 257.56003 121.561067 
L 253.813114 120.197301 
L 249.980194 119.098229 
L 246.079943 118.269205 
L 242.131364 117.714269 
L 238.153692 117.436123 
L 234.166308 117.436123 
L 230.188636 117.714269 
L 226.240057 118.269205 
L 222.339806 119.098229 
L 218.506886 120.197301 
L 214.75997 121.561067 
L 211.117313 123.182883 
L 207.596661 125.054846 
L 204.215167 127.167838 
L 200.989306 129.511564 
L 197.934792 132.074605 
L 195.066507 134.844475 
L 192.398426 137.80768 
L 189.943547 140.949782 
L 187.71383 144.255473 
L 185.720138 147.70865 
L 183.972183 151.292487 
L 182.478483 154.989526 
L 181.246313 158.781754 
L 180.281678 162.650696 
L 179.589276 166.577503 
L 179.17248 170.543044 
L 179.033323 174.528 
L 179.17248 178.512956 
L 179.589276 182.478497 
L 180.281678 186.405304 
L 181.246313 190.274246 
L 182.478483 194.066474 
L 183.972183 197.763513 
L 185.720138 201.34735 
L 187.71383 204.800527 
L 189.943547 208.106218 
L 192.398426 211.24832 
L 195.066507 214.211525 
L 197.934792 216.981395 
L 200.989306 219.544436 
L 204.215167 221.888162 
L 207.596661 224.001154 
L 211.117313 225.873117 
L 214.75997 227.494933 
L 218.506886 228.858699 
L 222.339806 229.957771 
L 226.240057 230.786795 
L 230.188636 231.341731 
L 234.166308 231.619877 
L 238.153692 231.619877 
L 242.131364 231.341731 
L 246.079943 230.786795 
L 249.980194 229.957771 
L 253.813114 228.858699 
L 257.56003 227.494933 
L 261.202687 225.873117 
L 264.723339 224.001154 
L 268.104833 221.888162 
L 271.330694 219.544436 
L 274.385208 216.981395 
L 277.253493 214.211525 
L 279.921574 211.24832 
L 282.376453 208.106218 
L 284.60617 204.800527 
L 286.599862 201.34735 
L 288.347817 197.763513 
L 289.841517 194.066474 
L 291.073687 190.274246 
L 292.038322 186.405304 
L 292.730724 182.478497 
L 293.14752 178.512956 
L 293.286677 174.528 
L 293.286677 174.528 
" style="fill:none;stroke:#b0b0b0;stroke-linecap:square;stroke-width:0.8;"/>
     </g>
     <g id="text_11">
      <!-- 6 -->
      <defs>
       <path d="M 33.015625 40.375 
Q 26.375 40.375 22.484375 35.828125 
Q 18.609375 31.296875 18.609375 23.390625 
Q 18.609375 15.53125 22.484375 10.953125 
Q 26.375 6.390625 33.015625 6.390625 
Q 39.65625 6.390625 43.53125 10.953125 
Q 47.40625 15.53125 47.40625 23.390625 
Q 47.40625 31.296875 43.53125 35.828125 
Q 39.65625 40.375 33.015625 40.375 
z
M 52.59375 71.296875 
L 52.59375 62.3125 
Q 48.875 64.0625 45.09375 64.984375 
Q 41.3125 65.921875 37.59375 65.921875 
Q 27.828125 65.921875 22.671875 59.328125 
Q 17.53125 52.734375 16.796875 39.40625 
Q 19.671875 43.65625 24.015625 45.921875 
Q 28.375 48.1875 33.59375 48.1875 
Q 44.578125 48.1875 50.953125 41.515625 
Q 57.328125 34.859375 57.328125 23.390625 
Q 57.328125 12.15625 50.6875 5.359375 
Q 44.046875 -1.421875 33.015625 -1.421875 
Q 20.359375 -1.421875 13.671875 8.265625 
Q 6.984375 17.96875 6.984375 36.375 
Q 6.984375 53.65625 15.1875 63.9375 
Q 23.390625 74.21875 37.203125 74.21875 
Q 40.921875 74.21875 44.703125 73.484375 
Q 48.484375 72.75 52.59375 71.296875 
z
" id="DejaVuSans-54"/>
      </defs>
      <g transform="translate(288.938168 150.58688)scale(0.1 -0.1)">
       <use xlink:href="#DejaVuSans-54"/>
      </g>
     </g>
    </g>
    <g id="ytick_4">
     <g id="line2d_12">
      <path clip-path="url(#p828b7bc152)" d="M 312.328903 174.528 
L 312.14336 169.214726 
L 311.587633 163.927338 
L 310.66443 158.691595 
L 309.378249 153.533005 
L 307.735356 148.476701 
L 305.743755 143.547316 
L 303.41315 138.768866 
L 300.754893 134.164631 
L 297.781937 129.757042 
L 294.508765 125.567573 
L 290.951324 121.616634 
L 287.126944 117.923474 
L 283.054259 114.506085 
L 278.75311 111.381117 
L 274.244452 108.563795 
L 269.550249 106.067843 
L 264.693373 103.905423 
L 259.697486 102.087068 
L 254.586925 100.621639 
L 249.386591 99.516274 
L 244.121818 98.776358 
L 238.818256 98.405497 
L 233.501744 98.405497 
L 228.198182 98.776358 
L 222.933409 99.516274 
L 217.733075 100.621639 
L 212.622514 102.087068 
L 207.626627 103.905423 
L 202.769751 106.067843 
L 198.075548 108.563795 
L 193.56689 111.381117 
L 189.265741 114.506085 
L 185.193056 117.923474 
L 181.368676 121.616634 
L 177.811235 125.567573 
L 174.538063 129.757042 
L 171.565107 134.164631 
L 168.90685 138.768866 
L 166.576245 143.547316 
L 164.584644 148.476701 
L 162.941751 153.533005 
L 161.65557 158.691595 
L 160.732367 163.927338 
L 160.17664 169.214726 
L 159.991097 174.528 
L 160.17664 179.841274 
L 160.732367 185.128662 
L 161.65557 190.364405 
L 162.941751 195.522995 
L 164.584644 200.579299 
L 166.576245 205.508684 
L 168.90685 210.287134 
L 171.565107 214.891369 
L 174.538063 219.298958 
L 177.811235 223.488427 
L 181.368676 227.439366 
L 185.193056 231.132526 
L 189.265741 234.549915 
L 193.56689 237.674883 
L 198.075548 240.492205 
L 202.769751 242.988157 
L 207.626627 245.150577 
L 212.622514 246.968932 
L 217.733075 248.434361 
L 222.933409 249.539726 
L 228.198182 250.279642 
L 233.501744 250.650503 
L 238.818256 250.650503 
L 244.121818 250.279642 
L 249.386591 249.539726 
L 254.586925 248.434361 
L 259.697486 246.968932 
L 264.693373 245.150577 
L 269.550249 242.988157 
L 274.244452 240.492205 
L 278.75311 237.674883 
L 283.054259 234.549915 
L 287.126944 231.132526 
L 290.951324 227.439366 
L 294.508765 223.488427 
L 297.781937 219.298958 
L 300.754893 214.891369 
L 303.41315 210.287134 
L 305.743755 205.508684 
L 307.735356 200.579299 
L 309.378249 195.522995 
L 310.66443 190.364405 
L 311.587633 185.128662 
L 312.14336 179.841274 
L 312.328903 174.528 
L 312.328903 174.528 
" style="fill:none;stroke:#b0b0b0;stroke-linecap:square;stroke-width:0.8;"/>
     </g>
     <g id="text_12">
      <!-- 8 -->
      <g transform="translate(306.530891 143.299735)scale(0.1 -0.1)">
       <use xlink:href="#DejaVuSans-56"/>
      </g>
     </g>
    </g>
    <g id="ytick_5">
     <g id="line2d_13">
      <path clip-path="url(#p828b7bc152)" d="M 331.371129 174.528 
L 331.313129 171.20518 
L 331.139199 167.886407 
L 330.849552 164.575727 
L 330.444541 161.277172 
L 329.924658 157.994761 
L 329.290537 154.732493 
L 328.542952 151.494343 
L 327.682811 148.284256 
L 326.711165 145.106143 
L 325.629195 141.963876 
L 324.438222 138.861283 
L 323.139694 135.802145 
L 321.735196 132.790188 
L 320.226437 129.829083 
L 318.615256 126.922436 
L 316.903617 124.073789 
L 315.093603 121.286612 
L 313.187421 118.564303 
L 311.187393 115.910176 
L 309.095956 113.327466 
L 306.915658 110.81932 
L 304.649154 108.388792 
L 302.299208 106.038846 
L 299.86868 103.772342 
L 297.360534 101.592044 
L 294.777824 99.500607 
L 292.123697 97.500579 
L 289.401388 95.594397 
L 286.614211 93.784383 
L 283.765564 92.072744 
L 280.858917 90.461563 
L 277.897812 88.952804 
L 274.885855 87.548306 
L 271.826717 86.249778 
L 268.724124 85.058805 
L 265.581857 83.976835 
L 262.403744 83.005189 
L 259.193657 82.145048 
L 255.955507 81.397463 
L 252.693239 80.763342 
L 249.410828 80.243459 
L 246.112273 79.838448 
L 242.801593 79.548801 
L 239.48282 79.374871 
L 236.16 79.316871 
L 232.83718 79.374871 
L 229.518407 79.548801 
L 226.207727 79.838448 
L 222.909172 80.243459 
L 219.626761 80.763342 
L 216.364493 81.397463 
L 213.126343 82.145048 
L 209.916256 83.005189 
L 206.738143 83.976835 
L 203.595876 85.058805 
L 200.493283 86.249778 
L 197.434145 87.548306 
L 194.422188 88.952804 
L 191.461083 90.461563 
L 188.554436 92.072744 
L 185.705789 93.784383 
L 182.918612 95.594397 
L 180.196303 97.500579 
L 177.542176 99.500607 
L 174.959466 101.592044 
L 172.45132 103.772342 
L 170.020792 106.038846 
L 167.670846 108.388792 
L 165.404342 110.81932 
L 163.224044 113.327466 
L 161.132607 115.910176 
L 159.132579 118.564303 
L 157.226397 121.286612 
L 155.416383 124.073789 
L 153.704744 126.922436 
L 152.093563 129.829083 
L 150.584804 132.790188 
L 149.180306 135.802145 
L 147.881778 138.861283 
L 146.690805 141.963876 
L 145.608835 145.106143 
L 144.637189 148.284256 
L 143.777048 151.494343 
L 143.029463 154.732493 
L 142.395342 157.994761 
L 141.875459 161.277172 
L 141.470448 164.575727 
L 141.180801 167.886407 
L 141.006871 171.20518 
L 140.948871 174.528 
L 141.006871 177.85082 
L 141.180801 181.169593 
L 141.470448 184.480273 
L 141.875459 187.778828 
L 142.395342 191.061239 
L 143.029463 194.323507 
L 143.777048 197.561657 
L 144.637189 200.771744 
L 145.608835 203.949857 
L 146.690805 207.092124 
L 147.881778 210.194717 
L 149.180306 213.253855 
L 150.584804 216.265812 
L 152.093563 219.226917 
L 153.704744 222.133564 
L 155.416383 224.982211 
L 157.226397 227.769388 
L 159.132579 230.491697 
L 161.132607 233.145824 
L 163.224044 235.728534 
L 165.404342 238.23668 
L 167.670846 240.667208 
L 170.020792 243.017154 
L 172.45132 245.283658 
L 174.959466 247.463956 
L 177.542176 249.555393 
L 180.196303 251.555421 
L 182.918612 253.461603 
L 185.705789 255.271617 
L 188.554436 256.983256 
L 191.461083 258.594437 
L 194.422188 260.103196 
L 197.434145 261.507694 
L 200.493283 262.806222 
L 203.595876 263.997195 
L 206.738143 265.079165 
L 209.916256 266.050811 
L 213.126343 266.910952 
L 216.364493 267.658537 
L 219.626761 268.292658 
L 222.909172 268.812541 
L 226.207727 269.217552 
L 229.518407 269.507199 
L 232.83718 269.681129 
L 236.16 269.739129 
L 239.48282 269.681129 
L 242.801593 269.507199 
L 246.112273 269.217552 
L 249.410828 268.812541 
L 252.693239 268.292658 
L 255.955507 267.658537 
L 259.193657 266.910952 
L 262.403744 266.050811 
L 265.581857 265.079165 
L 268.724124 263.997195 
L 271.826717 262.806222 
L 274.885855 261.507694 
L 277.897812 260.103196 
L 280.858917 258.594437 
L 283.765564 256.983256 
L 286.614211 255.271617 
L 289.401388 253.461603 
L 292.123697 251.555421 
L 294.777824 249.555393 
L 297.360534 247.463956 
L 299.86868 245.283658 
L 302.299208 243.017154 
L 304.649154 240.667208 
L 306.915658 238.23668 
L 309.095956 235.728534 
L 311.187393 233.145824 
L 313.187421 230.491697 
L 315.093603 227.769388 
L 316.903617 224.982211 
L 318.615256 222.133564 
L 320.226437 219.226917 
L 321.735196 216.265812 
L 323.139694 213.253855 
L 324.438222 210.194717 
L 325.629195 207.092124 
L 326.711165 203.949857 
L 327.682811 200.771744 
L 328.542952 197.561657 
L 329.290537 194.323507 
L 329.924658 191.061239 
L 330.444541 187.778828 
L 330.849552 184.480273 
L 331.139199 181.169593 
L 331.313129 177.85082 
L 331.371129 174.528 
L 331.371129 174.528 
" style="fill:none;stroke:#b0b0b0;stroke-linecap:square;stroke-width:0.8;"/>
     </g>
     <g id="text_13">
      <!-- 10 -->
      <g transform="translate(324.123613 136.012591)scale(0.1 -0.1)">
       <use xlink:href="#DejaVuSans-49"/>
       <use x="63.623047" xlink:href="#DejaVuSans-48"/>
      </g>
     </g>
    </g>
    <g id="ytick_6">
     <g id="line2d_14">
      <path clip-path="url(#p828b7bc152)" d="M 350.413355 174.528 
L 350.343755 170.540615 
L 350.135039 166.558089 
L 349.787463 162.585272 
L 349.301449 158.627006 
L 348.67759 154.688113 
L 347.916645 150.773392 
L 347.019542 146.887612 
L 345.987374 143.035507 
L 344.821398 139.221772 
L 343.523034 135.451051 
L 342.093866 131.72794 
L 340.535633 128.056974 
L 338.850235 124.442626 
L 337.039725 120.889299 
L 335.106308 117.401323 
L 333.05234 113.982946 
L 330.880324 110.638335 
L 328.592906 107.371563 
L 326.192872 104.186611 
L 323.683147 101.087359 
L 321.066789 98.077583 
L 318.346985 95.160951 
L 315.527049 92.341015 
L 312.610417 89.621211 
L 309.600641 87.004853 
L 306.501389 84.495128 
L 303.316437 82.095094 
L 300.049665 79.807676 
L 296.705054 77.63566 
L 293.286677 75.581692 
L 289.798701 73.648275 
L 286.245374 71.837765 
L 282.631026 70.152367 
L 278.96006 68.594134 
L 275.236949 67.164966 
L 271.466228 65.866602 
L 267.652493 64.700626 
L 263.800388 63.668458 
L 259.914608 62.771355 
L 255.999887 62.01041 
L 252.060994 61.386551 
L 248.102728 60.900537 
L 244.129911 60.552961 
L 240.147385 60.344245 
L 236.16 60.274645 
L 232.172615 60.344245 
L 228.190089 60.552961 
L 224.217272 60.900537 
L 220.259006 61.386551 
L 216.320113 62.01041 
L 212.405392 62.771355 
L 208.519612 63.668458 
L 204.667507 64.700626 
L 200.853772 65.866602 
L 197.083051 67.164966 
L 193.35994 68.594134 
L 189.688974 70.152367 
L 186.074626 71.837765 
L 182.521299 73.648275 
L 179.033323 75.581692 
L 175.614946 77.63566 
L 172.270335 79.807676 
L 169.003563 82.095094 
L 165.818611 84.495128 
L 162.719359 87.004853 
L 159.709583 89.621211 
L 156.792951 92.341015 
L 153.973015 95.160951 
L 151.253211 98.077583 
L 148.636853 101.087359 
L 146.127128 104.186611 
L 143.727094 107.371563 
L 141.439676 110.638335 
L 139.26766 113.982946 
L 137.213692 117.401323 
L 135.280275 120.889299 
L 133.469765 124.442626 
L 131.784367 128.056974 
L 130.226134 131.72794 
L 128.796966 135.451051 
L 127.498602 139.221772 
L 126.332626 143.035507 
L 125.300458 146.887612 
L 124.403355 150.773392 
L 123.64241 154.688113 
L 123.018551 158.627006 
L 122.532537 162.585272 
L 122.184961 166.558089 
L 121.976245 170.540615 
L 121.906645 174.528 
L 121.976245 178.515385 
L 122.184961 182.497911 
L 122.532537 186.470728 
L 123.018551 190.428994 
L 123.64241 194.367887 
L 124.403355 198.282608 
L 125.300458 202.168388 
L 126.332626 206.020493 
L 127.498602 209.834228 
L 128.796966 213.604949 
L 130.226134 217.32806 
L 131.784367 220.999026 
L 133.469765 224.613374 
L 135.280275 228.166701 
L 137.213692 231.654677 
L 139.26766 235.073054 
L 141.439676 238.417665 
L 143.727094 241.684437 
L 146.127128 244.869389 
L 148.636853 247.968641 
L 151.253211 250.978417 
L 153.973015 253.895049 
L 156.792951 256.714985 
L 159.709583 259.434789 
L 162.719359 262.051147 
L 165.818611 264.560872 
L 169.003563 266.960906 
L 172.270335 269.248324 
L 175.614946 271.42034 
L 179.033323 273.474308 
L 182.521299 275.407725 
L 186.074626 277.218235 
L 189.688974 278.903633 
L 193.35994 280.461866 
L 197.083051 281.891034 
L 200.853772 283.189398 
L 204.667507 284.355374 
L 208.519612 285.387542 
L 212.405392 286.284645 
L 216.320113 287.04559 
L 220.259006 287.669449 
L 224.217272 288.155463 
L 228.190089 288.503039 
L 232.172615 288.711755 
L 236.16 288.781355 
L 240.147385 288.711755 
L 244.129911 288.503039 
L 248.102728 288.155463 
L 252.060994 287.669449 
L 255.999887 287.04559 
L 259.914608 286.284645 
L 263.800388 285.387542 
L 267.652493 284.355374 
L 271.466228 283.189398 
L 275.236949 281.891034 
L 278.96006 280.461866 
L 282.631026 278.903633 
L 286.245374 277.218235 
L 289.798701 275.407725 
L 293.286677 273.474308 
L 296.705054 271.42034 
L 300.049665 269.248324 
L 303.316437 266.960906 
L 306.501389 264.560872 
L 309.600641 262.051147 
L 312.610417 259.434789 
L 315.527049 256.714985 
L 318.346985 253.895049 
L 321.066789 250.978417 
L 323.683147 247.968641 
L 326.192872 244.869389 
L 328.592906 241.684437 
L 330.880324 238.417665 
L 333.05234 235.073054 
L 335.106308 231.654677 
L 337.039725 228.166701 
L 338.850235 224.613374 
L 340.535633 220.999026 
L 342.093866 217.32806 
L 343.523034 213.604949 
L 344.821398 209.834228 
L 345.987374 206.020493 
L 347.019542 202.168388 
L 347.916645 198.282608 
L 348.67759 194.367887 
L 349.301449 190.428994 
L 349.787463 186.470728 
L 350.135039 182.497911 
L 350.343755 178.515385 
L 350.413355 174.528 
L 350.413355 174.528 
" style="fill:none;stroke:#b0b0b0;stroke-linecap:square;stroke-width:0.8;"/>
     </g>
     <g id="text_14">
      <!-- 12 -->
      <g transform="translate(341.716336 128.725447)scale(0.1 -0.1)">
       <use xlink:href="#DejaVuSans-49"/>
       <use x="63.623047" xlink:href="#DejaVuSans-50"/>
      </g>
     </g>
    </g>
   </g>
   <g id="line2d_15">
    <path clip-path="url(#p828b7bc152)" d="M 298.626143 174.528 
L 297.747466 173.452987 
L 297.39465 172.389639 
L 297.672358 171.304274 
L 298.775169 170.149521 
L 300.988609 168.856232 
L 304.685183 167.325713 
L 315.982931 163.309619 
L 318.669676 161.459751 
L 316.126462 160.427755 
L 307.500251 159.364162 
L 304.280881 158.801055 
L 299.304809 157.608399 
L 297.321285 156.990284 
L 295.638643 156.343554 
L 294.255529 155.651618 
L 293.209322 154.884343 
L 292.583152 153.991652 
L 292.43814 152.924846 
L 292.900213 150.443209 
L 292.705527 149.352309 
L 291.581232 147.497259 
L 291.498173 146.331792 
L 291.992287 144.841446 
L 293.038407 142.999784 
L 297.931451 135.928913 
L 298.498752 134.044741 
L 297.691988 133.02415 
L 293.027033 131.675617 
L 291.691738 131.141851 
L 290.105345 130.843921 
L 288.090108 130.953466 
L 283.427691 131.96798 
L 281.289613 132.443955 
L 279.463813 132.709994 
L 277.973512 132.714488 
L 276.795757 132.448442 
L 275.877205 131.936513 
L 275.136582 131.24012 
L 273.789979 129.682337 
L 270.797177 126.854016 
L 270.230517 125.870259 
L 269.793263 124.664637 
L 268.355523 118.763718 
L 267.711748 117.607141 
L 266.881989 116.748343 
L 265.915954 116.128651 
L 262.864387 114.548965 
L 259.858908 112.790234 
L 258.775341 112.392861 
L 257.638177 112.150844 
L 255.284442 111.97477 
L 252.897223 112.063834 
L 251.663921 112.34517 
L 250.394167 112.87305 
L 247.831639 114.482625 
L 245.411186 116.118313 
L 244.280956 116.744396 
L 243.200029 117.191567 
L 242.160526 117.436808 
L 241.153326 117.454023 
L 240.168421 117.204915 
L 239.194016 116.635534 
L 238.214893 115.683571 
L 237.211166 114.306725 
L 235.044704 110.632732 
L 233.871146 108.983789 
L 232.671437 107.962252 
L 231.472654 107.495826 
L 229.034291 106.731409 
L 227.790003 106.359846 
L 226.594366 106.464975 
L 225.495183 107.192996 
L 224.486552 108.324588 
L 221.739258 112.064905 
L 220.835606 113.065211 
L 218.973219 114.590572 
L 217.144196 116.003374 
L 215.399464 117.488895 
L 214.508422 118.123712 
L 213.572029 118.620811 
L 212.574243 118.963439 
L 211.505019 119.152005 
L 210.353724 119.186262 
L 209.09725 119.04114 
L 207.684053 118.640807 
L 206.023222 117.848964 
L 204.009026 116.526107 
L 201.653053 114.760215 
L 199.306306 113.193154 
L 197.394083 112.489565 
L 195.603123 112.075887 
L 193.213321 110.85693 
L 190.092002 108.73608 
L 187.356244 107.355393 
L 186.699995 108.892357 
L 187.926846 112.792379 
L 191.663424 121.499045 
L 193.207196 125.116452 
L 194.242658 127.974075 
L 194.709056 130.077305 
L 194.644158 131.537087 
L 194.131509 132.499509 
L 193.258809 133.098802 
L 192.09471 133.436452 
L 190.660939 133.560461 
L 188.866826 133.416671 
L 186.450641 132.816895 
L 183.054599 131.524095 
L 173.637553 127.413956 
L 170.653771 126.934939 
L 171.277376 129.096698 
L 174.209189 132.74165 
L 183.016276 142.596029 
L 184.872889 144.917373 
L 186.061276 146.757824 
L 186.533009 148.140861 
L 186.307512 149.126888 
L 185.501399 149.820149 
L 183.245691 150.969032 
L 181.284784 152.356974 
L 179.859909 152.91642 
L 177.773537 153.277065 
L 175.012936 153.473377 
L 167.903098 153.659771 
L 152.283309 153.615192 
L 146.806263 153.899064 
L 143.001693 154.72659 
L 142.307353 156.284893 
L 145.578308 160.181269 
L 146.688192 161.953557 
L 148.50108 165.314676 
L 149.721585 166.965619 
L 152.281699 170.132124 
L 153.113481 171.627952 
L 153.604222 173.086984 
L 154.203318 175.958559 
L 154.687182 178.797809 
L 155.193457 180.189732 
L 156.196853 181.523869 
L 157.878753 182.755691 
L 160.14948 183.860918 
L 162.583512 184.868501 
L 164.616103 185.85944 
L 165.762622 186.940957 
L 165.678404 188.228234 
L 164.189222 189.825861 
L 161.580067 191.746134 
L 159.204029 193.715278 
L 159.105211 195.174768 
L 161.541914 195.924392 
L 164.623212 196.398991 
L 166.829033 197.054997 
L 167.744783 198.085248 
L 167.456556 199.534009 
L 166.209056 201.379652 
L 162.656258 205.728487 
L 162.011864 207.540877 
L 163.327786 208.490219 
L 165.995166 208.749676 
L 168.754664 208.872734 
L 171.060345 209.142101 
L 172.859242 209.616183 
L 174.168666 210.318713 
L 174.987369 211.284225 
L 175.32525 212.541771 
L 175.216256 214.10533 
L 174.709427 215.976935 
L 173.85818 218.152204 
L 171.328618 223.38195 
L 164.229252 237.056445 
L 162.306646 241.025858 
L 160.513765 245.069255 
L 159.023005 249.01833 
L 157.92479 252.76321 
L 156.173167 260.303377 
L 153.620097 269.479296 
L 153.183617 273.415402 
L 155.336377 274.336863 
L 160.456419 271.424165 
L 166.921422 266.410697 
L 178.599199 256.733343 
L 183.180763 253.072948 
L 187.034786 250.174196 
L 190.309368 247.90435 
L 193.133957 246.135361 
L 195.611201 244.76058 
L 197.819713 243.695709 
L 199.819646 242.874266 
L 203.373319 241.750658 
L 208.069954 240.704002 
L 212.443808 239.687702 
L 219.170599 237.933309 
L 220.47868 237.422338 
L 221.810057 236.684432 
L 223.160393 235.68634 
L 225.808518 233.23417 
L 228.22937 230.957366 
L 229.34174 230.058274 
L 230.397918 229.350551 
L 231.407727 228.846724 
L 232.381527 228.562675 
L 233.33024 228.523037 
L 234.266033 228.764105 
L 235.20336 229.333852 
L 236.16 230.285133 
L 237.15711 231.652408 
L 240.528061 236.994186 
L 241.700303 237.853954 
L 242.774911 237.464672 
L 243.689949 235.854516 
L 244.453291 233.537835 
L 245.749652 228.913619 
L 246.373083 227.069757 
L 247.011083 225.578334 
L 247.674612 224.403262 
L 248.37042 223.50132 
L 249.10344 222.833577 
L 249.878428 222.369844 
L 250.701122 222.089867 
L 251.578882 221.982439 
L 252.520803 222.043223 
L 253.537525 222.272359 
L 254.641251 222.673306 
L 255.846841 223.254642 
L 257.17481 224.03579 
L 258.655814 225.054427 
L 260.33257 226.366244 
L 266.60166 231.780435 
L 268.593087 233.038838 
L 270.266517 233.602221 
L 271.89181 233.995718 
L 273.802325 234.768313 
L 276.19814 236.181329 
L 279.186878 238.317969 
L 286.843202 244.287443 
L 290.761568 246.986728 
L 293.871514 248.395369 
L 296.15058 248.610196 
L 298.28468 248.565311 
L 300.676577 248.745832 
L 302.687545 248.414324 
L 303.265786 246.490145 
L 302.532207 243.258432 
L 300.510288 236.670351 
L 298.680636 228.87636 
L 297.768877 224.417885 
L 297.128364 222.161706 
L 296.00223 219.622354 
L 294.387326 216.832629 
L 290.994381 211.514257 
L 289.787707 209.35424 
L 289.069731 207.589669 
L 288.874824 206.202261 
L 289.225041 205.165116 
L 290.133631 204.446072 
L 291.561758 203.985637 
L 295.095771 203.272896 
L 296.462998 202.64775 
L 297.257523 201.73037 
L 297.454397 200.545928 
L 296.954967 199.090761 
L 295.806783 197.424255 
L 294.507941 195.764914 
L 293.645672 194.321904 
L 293.49576 193.157518 
L 294.005257 192.21307 
L 295.642858 190.466384 
L 295.996042 189.446801 
L 296.05378 187.258816 
L 296.594172 186.275213 
L 297.978564 185.428281 
L 300.562156 184.728299 
L 309.446945 183.526505 
L 311.494508 182.445976 
L 309.527568 180.94683 
L 304.054631 178.086207 
L 301.840395 176.82161 
L 300.001131 175.642351 
L 298.626143 174.528 
L 298.626143 174.528 
" style="fill:none;stroke:#1f77b4;stroke-linecap:square;stroke-opacity:0.55;stroke-width:3;"/>
   </g>
   <g id="patch_3">
    <path d="M 369.216 174.528 
C 369.216 157.055246 365.774248 139.752393 359.087715 123.609673 
C 352.401182 107.466954 342.599903 92.798303 330.2448 80.4432 
C 317.889697 68.088097 303.221046 58.286818 287.078327 51.600285 
C 270.935607 44.913752 253.632754 41.472 236.16 41.472 
C 218.687246 41.472 201.384393 44.913752 185.241673 51.600285 
C 169.098954 58.286818 154.430303 68.088097 142.0752 80.4432 
C 129.720097 92.798303 119.918818 107.466954 113.232285 123.609673 
C 106.545752 139.752393 103.104 157.055246 103.104 174.528 
C 103.104 192.000754 106.545752 209.303607 113.232285 225.446327 
C 119.918818 241.589046 129.720097 256.257697 142.0752 268.6128 
C 154.430303 280.967903 169.098954 290.769182 185.241673 297.455715 
C 201.384393 304.142248 218.687246 307.584 236.16 307.584 
C 253.632754 307.584 270.935607 304.142248 287.078327 297.455715 
C 303.221046 290.769182 317.889697 280.967903 330.2448 268.6128 
C 342.599903 256.257697 352.401182 241.589046 359.087715 225.446327 
C 365.774248 209.303607 369.216 192.000754 369.216 174.528 
" style="fill:none;stroke:#000000;stroke-linecap:square;stroke-linejoin:miter;stroke-width:0.8;"/>
   </g>
  </g>
 </g>
 <defs>
  <clipPath id="p828b7bc152">
   <path d="M 369.216 174.528 
C 369.216 157.055246 365.774248 139.752393 359.087715 123.609673 
C 352.401182 107.466954 342.599903 92.798303 330.2448 80.4432 
C 317.889697 68.088097 303.221046 58.286818 287.078327 51.600285 
C 270.935607 44.913752 253.632754 41.472 236.16 41.472 
C 218.687246 41.472 201.384393 44.913752 185.241673 51.600285 
C 169.098954 58.286818 154.430303 68.088097 142.0752 80.4432 
C 129.720097 92.798303 119.918818 107.466954 113.232285 123.609673 
C 106.545752 139.752393 103.104 157.055246 103.104 174.528 
C 103.104 192.000754 106.545752 209.303607 113.232285 225.446327 
C 119.918818 241.589046 129.720097 256.257697 142.0752 268.6128 
C 154.430303 280.967903 169.098954 290.769182 185.241673 297.455715 
C 201.384393 304.142248 218.687246 307.584 236.16 307.584 
C 253.632754 307.584 270.935607 304.142248 287.078327 297.455715 
C 303.221046 290.769182 317.889697 280.967903 330.2448 268.6128 
C 342.599903 256.257697 352.401182 241.589046 359.087715 225.446327 
C 365.774248 209.303607 369.216 192.000754 369.216 174.528 
M 236.16 174.528 
C 236.16 174.528 236.16 174.528 236.16 174.528 
C 236.16 174.528 236.16 174.528 236.16 174.528 
C 236.16 174.528 236.16 174.528 236.16 174.528 
C 236.16 174.528 236.16 174.528 236.16 174.528 
C 236.16 174.528 236.16 174.528 236.16 174.528 
C 236.16 174.528 236.16 174.528 236.16 174.528 
C 236.16 174.528 236.16 174.528 236.16 174.528 
C 236.16 174.528 236.16 174.528 236.16 174.528 
C 236.16 174.528 236.16 174.528 236.16 174.528 
C 236.16 174.528 236.16 174.528 236.16 174.528 
C 236.16 174.528 236.16 174.528 236.16 174.528 
C 236.16 174.528 236.16 174.528 236.16 174.528 
C 236.16 174.528 236.16 174.528 236.16 174.528 
C 236.16 174.528 236.16 174.528 236.16 174.528 
C 236.16 174.528 236.16 174.528 236.16 174.528 
C 236.16 174.528 236.16 174.528 236.16 174.528 
M 369.216 174.528 
z
"/>
  </clipPath>
 </defs>
</svg>
